<svg width="152" height="42" viewBox="0 0 152 42" fill="none" xmlns="http://www.w3.org/2000/svg">
<path d="M92.2422 5.9323L100.411 9.1077L92.2422 12.1644V16.5013L106.218 10.8485V7.4028L92.2422 1.75V5.9323Z" fill="#BD00FF"/>
<path d="M17.4736 22.0381C13.5616 22.0381 10.698 23.7816 10.4635 27.4205H14.8003V27.3432C14.8292 27.0525 14.9154 26.7705 15.0542 26.5133C15.1929 26.2562 15.3813 26.0292 15.6084 25.8455C15.8355 25.6617 16.0968 25.5249 16.3772 25.4429C16.6576 25.361 16.9515 25.3355 17.2418 25.3679C18.8971 25.3679 19.6806 26.3363 19.6806 27.964V28.7392H17.7053C13.4457 28.7392 10 30.0551 10 34.1188V34.2761C10 37.5673 12.4388 39.0377 15.3824 39.0377C16.2522 39.0778 17.1183 38.9005 17.9025 38.5219C18.6866 38.1434 19.3641 37.5754 19.8737 36.8693V38.7674H24.2878V27.8481C24.1719 23.6658 21.311 22.0381 17.4736 22.0381ZM16.5438 35.832C14.9962 35.832 14.2982 35.0568 14.2982 33.934V33.7795C14.2982 32.3091 15.421 31.6883 17.6667 31.6883H19.4875V33.2388C19.5647 34.9327 18.0915 35.8238 16.5438 35.8238V35.832Z" fill="black"/>
<path d="M34.626 35.6306C32.4575 35.6306 31.3347 34.1575 31.3347 30.8662V30.3641C31.3347 27.1501 32.6534 25.6024 34.626 25.6024C36.1764 25.6024 37.0675 26.648 37.2992 28.1957H41.636C41.2857 23.9361 38.1517 22.0381 34.5101 22.0381C30.1733 22.0381 26.7275 24.9817 26.7275 30.5186V30.6731C26.7275 36.21 30.0188 38.9991 34.5101 38.9991C38.9241 38.9991 41.4402 36.3259 41.7905 32.687H37.6523C37.3378 34.5078 36.2095 35.6306 34.626 35.6306Z" fill="black"/>
<path d="M51.5477 35.6306C49.3793 35.6306 48.2564 34.1575 48.2564 30.8662V30.3641C48.2564 27.1501 49.5724 25.6024 51.5477 25.6024C53.0953 25.6024 53.9864 26.648 54.2182 28.1957H58.555C58.2074 23.9361 55.0706 22.0381 51.4318 22.0381C47.095 22.0381 43.6465 24.9817 43.6465 30.5186V30.6731C43.6465 36.21 46.9377 38.9991 51.4318 38.9991C55.8459 38.9991 58.3619 36.3259 58.6322 32.687H54.5658C54.2954 34.5078 53.0953 35.6306 51.5477 35.6306Z" fill="black"/>
<path d="M68.6217 35.7079C66.6464 35.7079 65.4077 34.5851 65.2532 31.6414H75.8249V29.7434C75.8249 24.3637 72.4564 22.0381 68.39 22.0381C63.9759 22.0381 60.6074 25.059 60.6074 30.5186V30.8662C60.6074 36.3259 63.8214 39.115 68.5058 39.115C72.7654 39.115 75.3587 36.7921 75.7863 33.6554H71.5212C71.3827 34.2984 71.008 34.8661 70.4711 35.2462C69.9342 35.6263 69.2742 35.791 68.6217 35.7079ZM68.3458 25.1362C70.1666 25.1362 71.2895 26.1818 71.3805 28.6206H65.3112C65.6395 26.0273 66.9582 25.2521 68.3513 25.1362H68.3458Z" fill="black"/>
<path d="M88.0992 22.0383C87.092 21.9829 86.0898 22.2159 85.2103 22.7099C84.3308 23.2039 83.6103 23.9385 83.1334 24.8274V22.3886H78.6504V38.6903H83.1417V28.3117C83.19 27.5922 83.5159 26.9195 84.0507 26.4357C84.5855 25.9518 85.2873 25.6947 86.0081 25.7185C87.6634 25.7185 88.4469 26.571 88.4469 28.5049V38.6903H93.054V27.771C93.054 23.7818 91.0401 22.0383 88.0992 22.0383Z" fill="black"/>
<path d="M101.534 33.4622V25.7569H104.671V22.3884H101.534V17.4226L97.0427 19.3207V22.3498H95.0674V25.7183H96.9654V33.9643C96.9654 37.2556 98.6207 38.9301 102.155 38.9301C103.032 38.948 103.907 38.8298 104.748 38.5798V35.0099C104.247 35.1764 103.725 35.2693 103.198 35.2858C102.144 35.2803 101.534 34.7009 101.534 33.4622Z" fill="black"/>
<path d="M117.214 32.5326V32.9575C117.167 33.677 116.842 34.35 116.307 34.8343C115.773 35.3186 115.072 35.5765 114.351 35.5535C112.696 35.5535 112.025 34.701 112.025 32.7643V22.3499H107.418V33.3464C107.418 37.1398 109.586 38.9606 112.53 38.9606C113.507 38.9976 114.474 38.7547 115.318 38.2606C116.161 37.7665 116.846 37.0417 117.292 36.1714V38.6102H121.899V22.3113H117.292L117.214 32.5326Z" fill="black"/>
<path d="M129.682 25.3293V22.3112H125.19V38.6101H129.682V30.171C129.682 27.4977 131.503 26.5322 134.648 26.5322V22.0381C132.394 22.0381 130.38 23.3182 129.682 25.3293Z" fill="black"/>
<path d="M151.251 29.6661C151.251 24.2837 147.882 22.0381 143.816 22.0381C139.402 22.0381 136.033 25.059 136.033 30.5186V30.8662C136.033 36.3259 139.247 39.115 143.932 39.115C148.191 39.115 150.71 36.7921 151.212 33.6554H146.952C146.78 34.3116 146.383 34.8871 145.832 35.2829C145.281 35.6786 144.609 35.8699 143.932 35.8238C141.959 35.8238 140.718 34.7009 140.563 31.7573H151.135V29.6661H151.251ZM140.679 28.6206C141.029 25.9501 142.334 25.1362 143.816 25.1362C145.637 25.1362 146.759 26.1818 146.837 28.6206H140.679Z" fill="black"/>
</svg>
