<svg width="105" height="36" viewBox="0 0 105 36" fill="none" xmlns="http://www.w3.org/2000/svg">
<g clip-path="url(#clip0_17_1136)">
<path d="M50.0219 3.68506L38.5369 23.1001C37.3519 25.1054 36.6227 27.1107 36.4404 29.0249H31.9741C32.2475 26.5638 33.2502 24.2851 35.1643 20.9125L43.2767 7.33106C44.9174 4.59656 46.467 3.68506 49.3838 3.68506H50.0219ZM49.1104 24.0116C48.29 24.832 46.5581 26.0169 45.282 26.0169C44.2794 26.0169 44.2794 25.1054 44.9174 23.8293C47.3785 19.1806 49.9307 16.7196 53.121 16.7196H53.6679L49.1104 24.0116ZM53.3944 14.0762C47.5608 14.0762 44.0059 17.4488 40.7245 24.9231C39.9042 26.8373 39.4484 29.116 42.1829 29.0249C43.7325 29.0249 46.2847 28.1134 48.1077 26.8373C48.0165 27.5665 47.9254 28.478 47.9254 28.9337H52.0272C52.2095 27.293 52.7564 25.3789 54.1236 22.9178L59.228 14.3497C57.405 14.2585 55.3997 14.0762 53.3944 14.0762ZM91.313 24.0116C90.493 24.832 88.761 26.0169 87.4847 26.0169C86.482 26.0169 86.482 25.1054 87.1201 23.8293C89.581 19.1806 92.133 16.7196 95.324 16.7196H95.871L91.313 24.0116ZM95.597 14.0762C89.763 14.0762 86.2086 17.4488 82.9272 24.9231C82.1068 26.8373 81.6511 29.116 84.3856 29.0249C85.9351 29.0249 88.487 28.1134 90.31 26.8373C90.128 27.4753 90.037 28.2957 90.128 28.8426H94.23C94.412 27.2019 94.959 25.2877 96.326 22.8267L101.431 14.2585C99.608 14.2585 97.602 14.0762 95.597 14.0762Z" fill="#08426A"/>
<path d="M82.197 33.1265H80.8298C79.0979 33.1265 77.6395 31.9416 77.0926 30.2097L75.0873 22.5531L71.3501 28.9336H66.9749L79.0979 8.2425C80.7386 5.508 82.2882 4.5965 85.205 4.5965H85.7519L77.6395 18.3602L83.7466 14.1673H88.5771L78.3687 21.277L82.197 33.1265ZM41.9086 2.5C37.8068 2.5 35.6192 3.5938 31.6086 6.5106L17.936 16.3549H9.27666C6.72446 16.3549 4.71916 16.446 3.07846 17.9956L0.799659 20.092C0.799659 20.092 7.36246 19.8186 13.5608 19.6363L0.435059 29.0248H6.08636L19.4855 19.3628C22.1289 19.2717 23.8608 19.1805 23.8608 19.1805C26.9599 19.0894 28.6917 16.3549 28.6917 16.3549H23.5873L34.4342 8.5159L26.413 21.5504C24.6811 24.5584 23.8608 26.6549 23.4962 29.0248H28.1448C28.3271 27.0195 28.9652 25.1053 30.2413 23.1L41.1793 4.7788C41.9997 3.5027 42.6378 2.5 42.6378 2.5H41.9086ZM63.7847 18.269C63.6935 18.6336 63.8758 18.9071 64.6962 19.454L65.9723 20.2743C67.3395 21.1858 67.8864 22.5531 67.7041 23.5558C67.2484 26.5637 64.9696 29.1159 60.2298 29.1159C58.1333 29.1159 57.2218 29.0248 54.6696 28.6602L56.5838 25.5611C58.3156 25.8345 59.3183 26.0168 60.5944 26.0168C62.4174 26.0168 63.1466 25.1965 63.2378 24.5584C63.3289 24.1938 63.1466 23.7381 62.2351 23.1L61.2324 22.3708C59.5917 21.1858 59.2271 20.2743 59.4094 18.9982C59.774 16.2637 62.8732 14.2584 67.3395 14.2584C68.7068 14.2584 70.2563 14.3496 71.8059 14.5319L70.074 17.5398C68.9802 17.4487 67.2484 17.3575 66.0634 17.4487C64.605 17.2664 63.8758 17.631 63.7847 18.269ZM101.065 24.5584C102.341 24.5584 103.435 25.6522 103.435 26.9283C103.435 28.2044 102.432 29.2982 101.065 29.2982C99.7891 29.2982 98.7861 28.2044 98.7861 26.9283C98.8771 25.6522 99.8801 24.5584 101.065 24.5584ZM101.065 28.8425C102.068 28.8425 102.888 28.0221 102.888 26.9283C102.888 25.8345 102.068 25.0142 101.065 25.0142C100.062 25.0142 99.2421 25.8345 99.2421 26.9283C99.2421 28.0221 100.154 28.8425 101.065 28.8425ZM100.792 28.2044H100.336V25.6522H101.247C101.703 25.6522 102.159 26.0168 102.159 26.4726C102.159 26.8372 101.885 27.1106 101.612 27.2018L102.159 28.2044H101.612L101.065 27.2929H100.883L100.792 28.2044ZM101.156 26.8372C101.43 26.8372 101.612 26.6549 101.612 26.4726C101.612 26.1991 101.43 26.108 101.156 26.108H100.792V26.8372H101.156Z" fill="#08426A"/>
</g>
<defs>
<clipPath id="clip0_17_1136">
<rect width="105" height="36" fill="white"/>
</clipPath>
</defs>
</svg>
