<svg width="58" height="39" viewBox="0 0 58 39" fill="none" xmlns="http://www.w3.org/2000/svg">
<path d="M16.1559 13.8936C16.1559 14.6808 16.2343 15.3192 16.3712 15.7872C16.5279 16.2553 16.7237 16.766 16.9978 17.3191C17.0957 17.4894 17.1348 17.6596 17.1348 17.8085C17.1348 18.0212 17.0174 18.234 16.7629 18.4468L15.5294 19.3404C15.3532 19.468 15.1769 19.5319 15.0203 19.5319C14.8245 19.5319 14.6287 19.4256 14.4329 19.234C14.1588 18.9149 13.9239 18.5745 13.7281 18.234C13.5322 17.8723 13.3364 17.4681 13.1211 16.9788C11.5939 18.9361 9.67507 19.9149 7.36478 19.9149C5.72009 19.9149 4.4082 19.4043 3.44887 18.383C2.48946 17.3617 2 16 2 14.2979C2 12.4893 2.58737 11.0213 3.78168 9.91486C4.97607 8.80853 6.56202 8.25528 8.57867 8.25528C9.24436 8.25528 9.92964 8.31911 10.6541 8.42551C11.3785 8.53191 12.1225 8.70214 12.9057 8.89365V7.34037C12.9057 5.72335 12.5924 4.59575 11.9855 3.93619C11.3589 3.27664 10.3017 2.95745 8.79407 2.95745C8.1088 2.95745 7.40386 3.04257 6.67942 3.23408C5.95499 3.4255 5.25013 3.65957 4.56486 3.95747C4.25164 4.10633 4.01666 4.19145 3.87958 4.23401C3.74251 4.27656 3.64469 4.29784 3.56636 4.29784C3.29222 4.29784 3.15515 4.08515 3.15515 3.63829V2.59571C3.15515 2.25534 3.19431 1.99999 3.29222 1.85103C3.39013 1.70208 3.56637 1.55322 3.84042 1.40427C4.5257 1.02124 5.34804 0.702125 6.30745 0.446804C7.26687 0.170205 8.28495 0.0425488 9.36185 0.0425488C11.6918 0.0425488 13.3952 0.617018 14.4917 1.76592C15.5685 2.91489 16.1168 4.65959 16.1168 7V13.8936H16.1559ZM8.20662 17.1276C8.85281 17.1276 9.51851 17 10.2234 16.7447C10.9282 16.4893 11.5547 16.0213 12.0834 15.383C12.3967 14.9787 12.6316 14.5319 12.7491 14.0212C12.8665 13.5106 12.9449 12.8936 12.9449 12.1702V11.2766C12.3771 11.1277 11.7701 11 11.1435 10.9149C10.517 10.8298 9.91006 10.7872 9.30311 10.7872C7.99131 10.7872 7.03189 11.0638 6.38578 11.6383C5.73967 12.2127 5.42636 13.0212 5.42636 14.0851C5.42636 15.0851 5.66135 15.8298 6.1508 16.3404C6.62076 16.8724 7.30603 17.1276 8.20662 17.1276ZM23.9289 19.4256C23.5765 19.4256 23.3415 19.3617 23.1849 19.2128C23.0282 19.0851 22.8912 18.7872 22.7738 18.383L18.1726 1.93615C18.0551 1.51066 17.9963 1.23404 17.9963 1.08508C17.9963 0.744711 18.153 0.55319 18.4663 0.55319H20.385C20.7571 0.55319 21.0116 0.617018 21.1487 0.76599C21.3053 0.893571 21.4228 1.19148 21.5402 1.59578L24.8296 15.6808L27.884 1.59578C27.9819 1.1702 28.0994 0.893571 28.2559 0.76599C28.4126 0.638297 28.6867 0.55319 29.0391 0.55319H30.6055C30.9775 0.55319 31.232 0.617018 31.3887 0.76599C31.5453 0.893571 31.6824 1.19148 31.7607 1.59578L34.8543 15.8511L38.2415 1.59578C38.359 1.1702 38.496 0.893571 38.633 0.76599C38.7897 0.638297 39.0442 0.55319 39.3966 0.55319H41.2176C41.5309 0.55319 41.707 0.723432 41.707 1.08508C41.707 1.19148 41.6874 1.29787 41.6678 1.42555C41.6483 1.55322 41.6091 1.72336 41.5309 1.95743L36.8122 18.4043C36.6947 18.8297 36.5576 19.1064 36.401 19.234C36.2444 19.3617 35.9898 19.4468 35.657 19.4468H33.9732C33.6011 19.4468 33.3467 19.383 33.19 19.234C33.0334 19.0851 32.8963 18.8085 32.818 18.383L29.7831 4.65959L26.7679 18.3617C26.6701 18.7872 26.5526 19.0638 26.3959 19.2128C26.2393 19.3617 25.9651 19.4256 25.6128 19.4256H23.9289ZM49.0884 20C48.0704 20 47.0522 19.8723 46.0732 19.617C45.0943 19.3617 44.3307 19.0851 43.8216 18.7659C43.5084 18.5745 43.293 18.3617 43.2146 18.1702C43.1363 17.9787 43.0971 17.766 43.0971 17.5745V16.4893C43.0971 16.0426 43.2538 15.8298 43.5475 15.8298C43.665 15.8298 43.7825 15.8511 43.8999 15.8936C44.0174 15.9362 44.1936 16.0213 44.3894 16.1064C45.0551 16.4255 45.7796 16.6808 46.5432 16.8511C47.3263 17.0213 48.0899 17.1063 48.8731 17.1063C50.1066 17.1063 51.066 16.8724 51.7317 16.4042C52.3974 15.9362 52.7498 15.2553 52.7498 14.383C52.7498 13.7873 52.5736 13.2978 52.2212 12.8936C51.8688 12.4893 51.2031 12.1277 50.2437 11.7872L47.4047 10.8298C45.9754 10.3404 44.9181 9.61704 44.272 8.65958C43.6258 7.7234 43.293 6.68082 43.293 5.57449C43.293 4.68087 43.4692 3.89364 43.8216 3.2128C44.174 2.53187 44.6439 1.93615 45.2314 1.4681C45.8187 0.978686 46.4844 0.617017 47.2676 0.361697C48.0508 0.106376 48.8731 0 49.7346 0C50.1653 0 50.6156 0.0212704 51.0464 0.0851075C51.4967 0.148935 51.9079 0.234042 52.3191 0.319149C52.7107 0.425525 53.0827 0.531911 53.4351 0.659567C53.7875 0.787269 54.0617 0.91485 54.2574 1.04252C54.5316 1.21276 54.7274 1.38299 54.8449 1.5745C54.9623 1.74464 55.021 1.97871 55.021 2.27661V3.27664C55.021 3.7234 54.8644 3.95747 54.5707 3.95747C54.4141 3.95747 54.1596 3.87236 53.8267 3.70212C52.7107 3.14896 51.4576 2.87233 50.0674 2.87233C48.9515 2.87233 48.0704 3.06385 47.4634 3.46805C46.8564 3.87236 46.5432 4.48935 46.5432 5.3617C46.5432 5.95742 46.739 6.46812 47.1305 6.87233C47.5222 7.27663 48.2466 7.68084 49.2843 8.04258L52.0645 8.99995C53.4742 9.48937 54.4924 10.1702 55.0993 11.0426C55.7063 11.9149 56 12.9149 56 14.0212C56 14.9361 55.8238 15.7659 55.491 16.4893C55.1385 17.2127 54.6686 17.851 54.0617 18.3617C53.4547 18.8936 52.7303 19.2766 51.8884 19.5531C51.0073 19.851 50.087 20 49.0884 20Z" fill="#252F3E"/>
<path fill-rule="evenodd" clip-rule="evenodd" d="M52.5386 30.5669C46.1798 36.0756 36.9412 39 28.9976 39C17.8649 39 7.83388 34.1714 0.257441 26.1465C-0.341698 25.5116 0.199452 24.6502 0.91457 25.149C9.10948 30.7256 19.2179 34.1033 29.674 34.1033C36.7286 34.1033 44.479 32.3805 51.6109 28.844C52.6739 28.2773 53.5823 29.6601 52.5386 30.5669Z" fill="#FF9900"/>
<path fill-rule="evenodd" clip-rule="evenodd" d="M55.0449 27.2227C54.225 26.0554 49.6183 26.6607 47.5297 26.9417C46.905 27.0281 46.8074 26.4228 47.3735 25.9689C51.0432 23.1153 57.075 23.9368 57.7777 24.888C58.4804 25.8608 57.5825 32.5407 54.147 35.7401C53.6199 36.2372 53.1124 35.9779 53.3466 35.3293C54.1274 33.1892 55.8648 28.3685 55.0449 27.2227Z" fill="#FF9900"/>
</svg>
