<svg width="121" height="38" viewBox="0 0 121 38" fill="none" xmlns="http://www.w3.org/2000/svg">
<path d="M0 0V37.7623H109.508L120.435 0H0Z" fill="#FFD20B"/>
<path d="M20.821 13.6332C20.3961 12.9094 19.8497 12.6681 19.2427 12.6681C18.6357 12.6681 18.0894 13.5126 18.0894 14.4777C18.0894 15.0811 18.2715 15.443 18.7571 15.8049L19.5462 16.2875C20.4568 16.8907 20.9424 17.8558 20.9424 19.4243C20.9424 22.4404 19.6676 24.974 17.543 24.974C16.5718 24.974 15.8434 24.4915 15.2363 23.7676L15.9648 21.5959C16.5718 22.3197 17.0574 22.6817 17.7858 22.6817C18.6964 22.6817 19.2427 21.7165 19.2427 20.3895C19.2427 19.6656 18.9999 19.1831 18.5143 18.9418L17.7858 18.459C16.9967 17.9765 16.5111 17.132 16.5111 15.5636C16.5111 12.7887 17.8466 10.4963 19.4855 10.4963C20.3354 10.4963 21.1852 10.9791 21.6708 11.9442L20.821 13.6332Z" fill="black"/>
<path d="M24.5838 16.2874H23.6733L23.1269 21.4754C23.0662 21.8373 23.0662 22.0786 23.0662 22.3199C23.0662 22.9231 23.1877 23.0437 23.4912 23.0437C23.6126 23.0437 23.8554 22.9231 23.9768 22.8024V24.3708C23.6126 24.6121 23.1876 24.8533 22.8234 24.8533C22.0343 24.8533 21.6094 24.1295 21.6094 23.0437C21.6094 22.6818 21.6094 22.1992 21.6701 21.7167L22.2771 16.1668H21.8522L22.0343 14.3572H22.5199C22.6413 13.3921 22.702 12.668 22.8234 11.9442L24.2196 11.2203C24.0982 12.1855 23.9161 13.2714 23.7947 14.3572H25.0087L24.5838 16.2874Z" fill="black"/>
<path d="M29.4412 17.4943L29.0163 21.3548C28.8949 22.1995 28.9556 22.8027 29.1984 23.4059L28.1058 25.0948C27.863 24.7329 27.7416 24.2504 27.7416 23.8884C27.3773 24.7329 26.9524 25.0948 26.3454 25.0948C25.4348 25.0948 24.9492 24.0091 24.9492 21.8375C24.9492 19.4245 25.4348 17.2528 26.0419 15.9258C26.5882 14.84 27.2559 14.3574 28.1058 14.3574C28.7128 14.3574 29.3805 14.5987 29.8054 15.0813C29.684 15.5638 29.5019 16.6496 29.4412 17.4943ZM27.863 16.2877C27.5594 16.2877 27.2559 16.2877 26.8917 17.1322C26.4668 18.0975 26.2847 20.1484 26.2847 21.4754C26.2847 22.4408 26.4061 22.8027 26.7096 22.8027C27.1345 22.8027 27.5594 21.9582 27.6808 21.2341L28.2272 16.4083C28.1665 16.4083 27.9844 16.2877 27.863 16.2877Z" fill="black"/>
<path d="M32.1106 14.1157C32.1713 14.4776 32.232 15.3221 32.232 15.8047C32.6569 14.8396 33.2033 14.2364 33.9924 14.2364C34.6601 14.2364 35.0244 14.9602 35.0244 16.2873C35.0244 16.77 35.0244 17.2526 34.9637 17.7351L34.2352 24.7325H32.8998L33.6282 18.0971C33.6889 17.7351 33.6889 17.3732 33.6889 17.1319C33.6889 16.6494 33.5675 16.5287 33.3247 16.5287C33.0212 16.5287 32.5962 16.8907 32.1713 18.0971L31.4429 24.7325H30.1074L30.8359 17.8558C30.9573 16.77 30.9573 15.8047 30.8359 15.2015L32.1106 14.1157Z" fill="black"/>
<path d="M38.0005 12.9093L37.2114 20.5099C37.09 21.7165 37.0293 22.1991 37.0293 22.4403C37.0293 22.8023 37.09 23.0435 37.2721 23.0435C37.3328 23.0435 37.3935 23.0435 37.3935 23.0435L37.4542 24.6119C37.2114 24.7325 36.9079 24.8534 36.6044 24.8534C35.8759 24.8534 35.5117 24.1293 35.5117 23.0435C35.5117 22.6816 35.5724 21.9578 35.6331 21.2339L36.4223 13.6332C36.5437 12.3061 36.6651 11.3408 36.5437 10.6169L38.0005 9.77246C38.1826 10.255 38.1826 11.7027 38.0005 12.9093Z" fill="black"/>
<path d="M42.3698 23.5263C41.7021 24.4914 40.9737 24.974 40.2452 24.974C39.0312 24.974 38.3027 23.647 38.3027 21.2341C38.3027 19.0624 38.7884 16.8907 39.4561 15.5636C39.9417 14.5985 40.5487 14.2366 41.2165 14.2366C42.2484 14.2366 42.9769 15.0811 42.9769 17.0115C42.9769 18.9418 42.0663 20.5101 40.3666 20.5101C40.0024 20.5101 39.7596 20.3895 39.7596 20.3895C39.7596 20.3895 39.6989 20.9927 39.6989 21.3548C39.6989 22.5612 40.0024 23.0437 40.5487 23.0437C41.0344 23.0437 41.52 22.6818 42.0056 21.958L42.3698 23.5263ZM40.3666 18.7005C40.9737 18.7005 41.6414 18.3386 41.6414 17.2528C41.6414 16.6494 41.52 16.1668 41.0951 16.1668C40.6094 16.1668 40.1845 16.77 40.0024 18.5798C40.0024 18.5798 40.1845 18.7005 40.3666 18.7005Z" fill="black"/>
<path d="M45.0408 14.2366L45.2836 20.2688C45.2836 20.872 45.3443 22.4405 45.3443 22.4405C45.3443 22.4405 45.7085 20.6307 46.012 19.4243L47.2868 14.5985H48.7437L45.7692 24.974C45.2229 26.9045 44.8587 27.8696 44.4337 28.3521C44.0695 28.8347 43.5839 29.1966 43.0983 29.3173L42.8555 27.5077C43.159 27.387 43.5232 27.1457 43.766 26.9044C44.1909 26.4219 44.3123 25.9393 44.6766 24.8534H44.3123C44.3123 24.1295 44.2516 22.8025 44.1909 21.958L43.7053 14.7191L45.0408 14.2366Z" fill="black"/>
<path d="M52.5083 10.7375C53.5403 10.7375 54.3294 11.7027 54.3294 13.7538C54.3294 15.0808 53.9045 16.6491 52.8726 17.2524C53.5403 17.4936 53.9045 18.7002 53.9045 19.9066C53.9045 20.7511 53.7224 22.199 53.2368 23.1641C52.7512 24.2499 52.1441 24.6118 51.0515 24.6118H48.502L50.0195 10.7375H52.5083ZM50.1409 22.4403H51.0515C51.355 22.4403 51.5978 22.3197 51.7799 22.0784C52.0834 21.7163 52.3262 20.7511 52.3262 20.0273C52.3262 19.0622 52.0834 18.7002 51.4157 18.7002H50.5659L50.1409 22.4403ZM50.8087 16.2872H51.6585C52.0227 16.2872 52.2048 16.1666 52.3869 15.9253C52.6297 15.5634 52.8119 15.0808 52.8119 14.357C52.8119 13.5125 52.6297 13.1504 52.0227 13.1504H51.1729L50.8087 16.2872Z" fill="black"/>
<path d="M57.1218 12.9093L56.2719 20.5099C56.1505 21.7165 56.0898 22.1991 56.0898 22.4403C56.0898 22.8023 56.1505 23.0435 56.3326 23.0435C56.3934 23.0435 56.4541 23.0435 56.4541 23.0435L56.5148 24.6119C56.2719 24.7325 55.9684 24.8534 55.6649 24.8534C54.9365 24.8534 54.5723 24.1293 54.5723 23.0435C54.5723 22.6816 54.633 21.9578 54.6937 21.2339L55.4828 13.6332C55.6042 12.3061 55.7256 11.3408 55.6042 10.6169L57.0611 9.77246C57.2432 10.255 57.2432 11.7027 57.1218 12.9093Z" fill="black"/>
<path d="M62.0389 17.4943L61.614 21.3548C61.5533 22.1995 61.5533 22.8027 61.7961 23.4059L60.7034 25.0948C60.4606 24.7329 60.3392 24.2504 60.3392 23.8884C59.975 24.7329 59.5501 25.0948 58.943 25.0948C58.0325 25.0948 57.5469 24.0091 57.5469 21.8375C57.5469 19.4245 58.0325 17.2528 58.6395 15.9258C59.1858 14.84 59.8536 14.3574 60.7034 14.3574C61.3105 14.3574 61.9782 14.5987 62.4031 15.0813C62.2817 15.5638 62.1603 16.6496 62.0389 17.4943ZM60.5213 16.2877C60.2178 16.2877 59.9143 16.2877 59.5501 17.1322C59.1251 18.0975 58.943 20.1484 58.943 21.4754C58.943 22.4408 59.0644 22.8027 59.368 22.8027C59.7929 22.8027 60.2178 21.9582 60.3392 21.2341L60.8855 16.4083C60.8248 16.4083 60.6427 16.2877 60.5213 16.2877Z" fill="black"/>
<path d="M66.3471 17.0115C66.1043 16.529 65.8615 16.2877 65.558 16.2877C65.3151 16.2877 65.133 16.529 64.9509 16.8909C64.5867 17.7356 64.2225 19.9071 64.2225 21.4754C64.2225 22.5614 64.4653 23.044 64.8295 23.044C65.1937 23.044 65.558 22.682 65.9829 22.0788L66.4078 23.7678C65.8615 24.6123 65.2544 25.0948 64.526 25.0948C63.3727 25.0948 62.7656 23.7678 62.7656 21.5961C62.7656 19.0626 63.3727 16.7702 64.1011 15.5638C64.5867 14.84 65.0723 14.3574 65.8008 14.3574C66.2864 14.3574 66.772 14.7193 67.1969 15.5638L66.3471 17.0115Z" fill="black"/>
<path d="M69.8078 9.77246C69.8685 10.255 69.8685 11.4614 69.6257 13.6332L68.4116 24.7325H67.0762L68.2902 13.5125C68.4116 12.0646 68.4723 11.2201 68.4116 10.7376L69.8078 9.77246ZM72.5394 14.4777L70.4148 18.9416L71.811 24.7325H70.2327L69.1401 18.9416L70.9005 14.4777H72.5394Z" fill="black"/>
<path d="M78.367 17.8558C78.2456 19.1828 77.9421 20.7514 77.5779 21.8371L78.7312 24.7327H76.9708L76.6066 23.888C76.121 24.6121 75.514 25.0946 74.5427 25.0946C73.1466 25.0946 72.3574 23.7674 72.3574 21.8371C72.3574 20.1482 72.9645 18.7003 74.0571 17.7351C73.6322 17.0113 73.5108 16.2875 73.5108 15.4428C73.5108 13.2712 74.5427 11.4614 75.8782 11.4614C76.9101 11.4614 77.5779 12.4267 77.5779 13.9951C77.5779 15.5634 77.2744 16.6494 75.9996 17.8558L75.8782 17.9764L76.7887 20.1482C76.9708 19.5448 77.0922 18.3383 77.153 17.9764H78.367V17.8558ZM73.875 21.5958C73.875 22.561 74.2392 23.0435 74.8462 23.0435C75.3319 23.0435 75.6961 22.8022 75.9996 22.3197L74.6641 19.1828C74.1785 19.6654 73.875 20.5101 73.875 21.5958ZM76.3031 14.2364C76.3031 13.6332 76.121 13.2712 75.8175 13.2712C75.3926 13.2712 75.0283 13.9951 75.0283 14.9602C75.0283 15.3221 75.0891 15.8047 75.4533 16.5287C75.9389 16.0462 76.3031 15.0808 76.3031 14.2364Z" fill="black"/>
<path d="M82.5548 10.7375C83.7082 10.7375 84.4366 10.9788 84.8615 12.0646C85.1651 12.9091 85.4079 13.7538 85.4079 15.4427C85.4079 17.7351 84.983 20.7511 84.1331 22.5609C83.4047 24.1293 82.6762 24.6118 81.1587 24.6118H79.459L80.9766 10.7375H82.5548ZM81.098 22.4403H81.7657C82.3727 22.4403 82.7976 21.8371 83.1012 20.9924C83.7082 19.0622 83.8296 16.2872 83.8296 15.5634C83.8296 14.2363 83.6475 13.0297 82.7369 13.0297H82.1299L81.098 22.4403Z" fill="black"/>
<path d="M89.7798 23.5263C89.1121 24.4914 88.3837 24.974 87.7159 24.974C86.5019 24.974 85.7734 23.647 85.7734 21.2341C85.7734 19.0624 86.2591 16.8907 86.9268 15.5636C87.4124 14.5985 88.0194 14.2366 88.6872 14.2366C89.7191 14.2366 90.4476 15.0811 90.4476 17.0115C90.4476 18.9418 89.537 20.5101 87.8373 20.5101C87.4731 20.5101 87.2303 20.3895 87.2303 20.3895C87.2303 20.3895 87.1696 20.9927 87.1696 21.3548C87.1696 22.5612 87.4731 23.0437 88.0194 23.0437C88.5051 23.0437 88.9907 22.6818 89.4763 21.958L89.7798 23.5263ZM87.8373 18.7005C88.4444 18.7005 89.1121 18.3386 89.1121 17.2528C89.1121 16.6494 88.9907 16.1668 88.5658 16.1668C88.0801 16.1668 87.6552 16.77 87.4731 18.5798C87.4124 18.5798 87.6552 18.7005 87.8373 18.7005Z" fill="black"/>
<path d="M94.4526 17.0115C94.2098 16.529 93.9669 16.2877 93.6634 16.2877C93.4206 16.2877 93.2385 16.529 93.0564 16.8909C92.6922 17.7356 92.328 19.9071 92.328 21.4754C92.328 22.5614 92.5708 23.044 92.935 23.044C93.2992 23.044 93.6634 22.682 94.0883 22.0788L94.5133 23.7678C93.9669 24.6123 93.3599 25.0948 92.6315 25.0948C91.4781 25.0948 90.8711 23.7678 90.8711 21.5961C90.8711 19.0626 91.4781 16.7702 92.2066 15.5638C92.6922 14.84 93.1778 14.3574 93.9062 14.3574C94.3919 14.3574 94.8775 14.7193 95.3024 15.5638L94.4526 17.0115Z" fill="black"/>
<path d="M97.913 9.77246C97.974 10.255 97.974 11.4614 97.731 13.6332L96.517 24.7325H95.1816L96.396 13.5125C96.517 12.0646 96.578 11.2201 96.517 10.7376L97.913 9.77246ZM100.645 14.4777L98.52 18.9416L99.916 24.7325H98.338L97.246 18.9416L98.945 14.4777H100.645Z" fill="black"/>
<path d="M104.53 23.5263C103.862 24.4914 103.134 24.974 102.405 24.974C101.191 24.974 100.463 23.647 100.463 21.2341C100.463 19.0624 100.949 16.8907 101.616 15.5636C102.102 14.5985 102.709 14.2366 103.377 14.2366C104.409 14.2366 105.137 15.0811 105.137 17.0115C105.137 18.9418 104.226 20.5101 102.527 20.5101C102.163 20.5101 101.92 20.3895 101.92 20.3895C101.92 20.3895 101.859 20.9927 101.859 21.3548C101.859 22.5612 102.163 23.0437 102.709 23.0437C103.195 23.0437 103.68 22.6818 104.166 21.958L104.53 23.5263ZM102.527 18.7005C103.134 18.7005 103.802 18.3386 103.802 17.2528C103.802 16.6494 103.68 16.1668 103.255 16.1668C102.77 16.1668 102.345 16.77 102.163 18.5798C102.163 18.5798 102.345 18.7005 102.527 18.7005Z" fill="black"/>
<path d="M107.444 14.1157C107.505 14.4776 107.627 15.2015 107.566 15.8047C107.991 14.8396 108.476 14.2364 109.023 14.2364C109.205 14.2364 109.326 14.2364 109.508 14.4776L108.901 16.8907C108.78 16.77 108.659 16.6494 108.537 16.6494C108.294 16.6494 107.991 16.8907 107.566 18.0971L106.837 24.8533H105.502L106.23 18.0971C106.352 16.77 106.352 15.9253 106.23 15.2015L107.444 14.1157Z" fill="black"/>
</svg>
