<svg width="66" height="46" viewBox="0 0 66 46" fill="none" xmlns="http://www.w3.org/2000/svg">
<g clip-path="url(#clip0_17_1099)">
<path d="M59.4 0H6.6C2.97 0 0 2.97 0 6.6V39.6C0 43.23 2.97 46.2 6.6 46.2H59.4C63.03 46.2 66 43.23 66 39.534V6.6C66 2.97 63.03 0 59.4 0Z" fill="#F01414"/>
<path d="M61.1823 39.534C61.2483 40.524 60.4563 41.382 59.4003 41.448H6.6003C5.6103 41.448 4.8183 40.59 4.8183 39.6V6.60004C4.7523 5.61004 5.5443 4.75204 6.5343 4.68604H59.4003C60.3903 4.68604 61.1823 5.54404 61.1823 6.53404V39.534Z" fill="white"/>
<path d="M20.1954 38.2139H9.10739V7.98592H20.1954C28.0494 7.98592 32.3394 12.8699 32.3394 22.9679C32.3394 31.6799 29.3694 38.1479 20.1954 38.2139ZM25.0134 23.5619C25.0134 17.4899 24.3534 12.7379 17.8194 12.7379H16.3674V33.3299H18.9414C22.7694 33.3299 25.0134 30.2279 25.0134 23.5619ZM51.4794 22.3739C54.5814 21.4499 56.6934 18.6119 56.7594 15.3119C56.7594 14.6519 56.6274 7.91992 48.1134 7.91992H35.5074V38.1479H46.1994C49.0374 38.1479 57.8814 38.1479 57.8814 29.6339C57.8814 27.5879 56.9574 23.5619 51.4794 22.3739ZM42.7014 12.6719H45.0114C48.2454 12.6719 49.5654 13.7939 49.5654 16.3019C49.5654 18.2819 48.1134 19.9319 45.6054 19.9319H42.7674V12.6719H42.7014ZM45.6714 33.3299H42.7014V25.5419H45.8694C49.6314 25.5419 50.5554 27.7199 50.5554 29.4359C50.5554 33.3299 46.8594 33.3299 45.6714 33.3299Z" fill="#F01414"/>
</g>
<defs>
<clipPath id="clip0_17_1099">
<rect width="66" height="46" fill="white"/>
</clipPath>
</defs>
</svg>
