<svg width="120" height="24" viewBox="0 0 120 24" fill="none" xmlns="http://www.w3.org/2000/svg">
<path d="M15.475 3.1883C20.1457 3.1883 23.95 6.9927 23.95 11.701C23.95 16.4093 20.1457 20.2137 15.475 20.2137C10.8043 20.2137 7 16.447 7 11.701C7 6.955 10.8043 3.1883 15.475 3.1883ZM81.919 3V17.916C81.919 19.046 82.371 19.3473 83.2373 19.5733L83.275 19.7617H78.4913V17.916C77.9263 19.272 76.7587 20.1007 75.252 20.1007C72.6907 20.1007 70.9957 17.7653 70.9957 14.3C70.9957 12.3413 71.5607 10.684 72.6153 9.441C73.6323 8.2357 75.026 7.5953 76.5703 7.5953C77.3237 7.5953 77.964 7.746 78.4913 8.085V6.051C78.4913 5.599 78.3783 5.2977 78.1523 5.0717C77.851 4.808 77.3613 4.695 76.608 4.7703H76.5703V4.582L81.919 3ZM100.074 7.633V17.916C100.074 19.046 100.526 19.3473 101.393 19.5733V19.7617H96.609V17.8783C96.044 19.2343 94.801 20.1007 93.4073 20.1007C91.75 20.1007 90.6953 19.3473 90.281 17.8783L90.2057 17.5017C90.1303 17.125 90.0927 16.7483 90.0927 16.3717V10.8723C90.0927 9.667 89.829 9.2903 88.7743 9.215H88.7367V9.0267L93.5203 7.633V16.2963C93.5203 17.577 94.0853 18.2927 95.14 18.2927C95.7803 18.2927 96.3077 17.9537 96.609 17.3887V10.8723C96.609 9.6293 96.383 9.2527 95.5167 9.1773H95.479V8.989L100.074 7.633ZM65.534 7.5953C66.8147 7.5953 68.0577 8.0473 68.8863 8.8383C69.828 9.7423 70.3177 11.0607 70.3553 12.7933V12.831H63.161C63.0103 15.317 64.5547 17.351 66.5887 17.4263C68.0577 17.5393 69.3383 16.6353 70.054 15.1663L70.2423 15.2417C69.828 17.9913 68.2083 20.063 65.3833 20.063C62.1817 20.063 60.3737 17.3887 60.2983 14.0363V13.17C60.449 11.701 60.901 10.3827 61.692 9.4033C62.1817 8.8007 62.7467 8.3487 63.4247 8.0473C63.9897 7.746 64.8183 7.5953 65.4963 7.5953H65.534ZM115.367 7.633C117.401 7.633 118.644 8.9137 118.644 11.0983V18.1043C118.644 18.933 119.021 19.3473 119.962 19.5733H120V19.7617H115.179V11.2113C115.179 9.8553 114.689 9.1773 113.672 9.1773C112.843 9.1773 112.429 9.78 112.203 10.3073C112.241 10.571 112.278 10.8347 112.278 11.0983V18.2173C112.278 19.0837 112.542 19.385 113.295 19.5733H113.333V19.7617H108.851V11.2113C108.851 9.8553 108.323 9.1773 107.344 9.1773C106.553 9.1773 106.139 9.7423 105.95 10.1943V18.255C105.95 19.1213 106.214 19.4227 106.967 19.611H107.005V19.7993H102.523V10.8347C102.523 9.6293 102.221 9.2527 101.204 9.1773H101.167V8.989L105.95 7.6707V9.667C106.44 8.3863 107.57 7.633 109.001 7.633C110.621 7.633 111.751 8.424 112.128 9.8553C112.617 8.4993 113.86 7.633 115.367 7.633ZM46.663 3.7533L51.1453 14.2623L55.6277 3.7533H60.449L60.4113 3.9417L60.3566 3.9538C59.526 4.1432 59.093 4.4538 59.093 5.486V18.2927C59.1683 19.1213 59.6203 19.385 60.4113 19.5733H60.449V19.7617H54.3093V19.5733H54.347C55.138 19.385 55.59 19.1213 55.6653 18.2927V5.825L49.7517 19.724H49.4127L43.6497 6.2017V17.9913C43.6497 19.046 44.1017 19.3473 44.968 19.5357H45.0057V19.724H41.465V19.5357H41.5027C42.369 19.3473 42.821 19.046 42.821 17.9913V5.486C42.821 4.4313 42.369 4.13 41.5027 3.9417H41.465V3.7533H46.663ZM87.7573 7.633V17.916L87.7579 17.9856C87.7763 19.0585 88.2274 19.352 89.0757 19.5733L89.1133 19.7617H84.3297V10.8723C84.3297 9.667 84.066 9.2903 83.0113 9.215H82.9737V9.0267L87.7573 7.633ZM29.035 3.678C31.3327 3.678 33.2537 7.294 33.2537 11.701C33.2537 16.1457 31.3703 19.724 29.035 19.724C26.6997 19.724 24.8163 16.1457 24.8163 11.701C24.8163 7.2563 26.6997 3.678 29.035 3.678ZM35.5137 4.5067C36.38 4.5067 37.0203 7.746 37.0203 11.701C37.0203 15.656 36.3423 18.8953 35.5137 18.8953C34.6933 18.8953 34.0206 15.7205 34.0072 11.8194L34.007 11.701C34.007 7.746 34.685 4.5067 35.5137 4.5067ZM77.1353 8.2733C75.6287 8.2733 74.687 10.2697 74.687 13.3583C74.687 14.8273 74.9507 16.108 75.4027 16.9743C75.817 17.803 76.4197 18.255 77.0977 18.255C77.7757 18.255 78.2653 17.9537 78.4913 17.3887V9.102C78.2277 8.5747 77.738 8.2733 77.1353 8.2733ZM65.4963 8.311C64.1403 8.311 63.3493 9.9307 63.2363 12.1907V12.2283H67.342C67.4173 10.458 67.116 9.2903 66.551 8.7253C66.2497 8.4617 65.9107 8.311 65.4963 8.311ZM85.9117 3.113C87.004 3.113 87.8327 3.9417 87.8327 5.034C87.8327 6.1263 87.004 6.955 85.9117 6.955C84.8193 6.955 83.9907 6.1263 83.9907 5.034C83.9907 3.9417 84.8193 3.113 85.9117 3.113Z" fill="black"/>
</svg>
