<svg width="128" height="60" viewBox="0 0 128 60" fill="none" xmlns="http://www.w3.org/2000/svg">
<path d="M31.066 22.4346C24.95 22.4346 20 27.3836 20 33.4984C20 39.6132 24.95 44.5622 31.066 44.5622C37.182 44.5622 42.132 39.6132 42.132 33.4984C42.132 27.3836 37.182 22.4346 31.066 22.4346ZM31.066 39.0413C28.008 39.0413 25.522 36.5558 25.522 33.4984C25.522 30.441 28.008 27.9555 31.066 27.9555C34.124 27.9555 36.61 30.441 36.61 33.4984C36.61 36.5558 34.124 39.0413 31.066 39.0413Z" fill="#007DC1"/>
<path d="M50.5148 37.2156C50.5148 36.3358 51.5708 35.9179 52.1868 36.5337C54.9588 39.3492 59.5348 44.1882 59.5568 44.2102C59.6228 44.2762 59.6888 44.3862 59.9528 44.4742C60.0628 44.5182 60.2388 44.5182 60.4368 44.5182H65.4308C66.3328 44.5182 66.5968 43.4844 66.1788 42.9565L57.9068 34.4881L57.4668 34.0482C56.5208 32.9265 56.6308 32.4865 57.7088 31.3428L64.2648 24.0182C64.6828 23.4903 64.4188 22.4785 63.4948 22.4785H58.9628C58.7868 22.4785 58.6548 22.4785 58.5228 22.5225C58.2588 22.6105 58.1488 22.6985 58.0828 22.7865C58.0608 22.8085 54.4308 26.7237 52.1868 29.1212C51.5708 29.7811 50.4708 29.3412 50.4708 28.4393V15.8798C50.4708 15.242 49.9428 15 49.5248 15H45.8288C45.1908 15 44.8828 15.4179 44.8828 15.7918V43.6383C44.8828 44.2762 45.4108 44.4522 45.8508 44.4522H49.5468C50.1188 44.4522 50.4928 44.0343 50.4928 43.6163V43.3304V37.2156H50.5148Z" fill="#007DC1"/>
<path d="M80.6978 43.5064L80.3018 39.8111C80.2578 39.3052 79.7738 38.9533 79.2678 39.0412C78.9818 39.0852 78.6958 39.1072 78.4098 39.1072C75.4618 39.1072 73.0638 36.7977 72.8878 33.8723C72.8878 33.7843 72.8878 33.6743 72.8878 33.5643V29.0332C72.8878 28.4393 73.3278 27.9554 73.9218 27.9554H78.8718C79.2238 27.9554 79.7518 27.6475 79.7518 27.0096V23.5123C79.7518 22.8305 79.3118 22.4785 78.9158 22.4785H73.9218C73.3498 22.4785 72.8878 22.0606 72.8658 21.4887V15.8798C72.8658 15.5279 72.6018 15 71.9198 15H68.2458C67.7838 15 67.3438 15.2859 67.3438 15.8578C67.3438 15.8578 67.3438 33.7843 67.3438 33.8723C67.4978 39.8551 72.4038 44.6281 78.4098 44.6281C78.9158 44.6281 79.3998 44.5841 79.8838 44.5182C80.4118 44.4522 80.7638 44.0123 80.6978 43.5064Z" fill="#007DC1"/>
<path d="M107.362 38.8653C104.238 38.8653 103.754 37.7436 103.754 33.5424C103.754 33.5204 103.754 33.5204 103.754 33.4984V23.4024C103.754 23.0505 103.49 22.4566 102.786 22.4566H99.0896C98.6276 22.4566 98.1216 22.8305 98.1216 23.4024V23.8643C96.5156 22.9405 94.6456 22.4126 92.6656 22.4126C86.5496 22.4126 81.5996 27.3616 81.5996 33.4764C81.5996 39.5912 86.5496 44.5402 92.6656 44.5402C95.4156 44.5402 97.9236 43.5284 99.8596 41.8787C100.894 43.4624 102.566 44.5182 105.184 44.5402C105.624 44.5402 108 44.6282 108 43.5064V39.5692C108 39.2393 107.736 38.8653 107.362 38.8653ZM92.6876 39.0413C89.6296 39.0413 87.1436 36.5558 87.1436 33.4984C87.1436 30.441 89.6296 27.9555 92.6876 27.9555C95.7456 27.9555 98.2316 30.441 98.2316 33.4984C98.2096 36.5558 95.7236 39.0413 92.6876 39.0413Z" fill="#007DC1"/>
</svg>
