<svg width="89" height="42" viewBox="0 0 89 42" fill="none" xmlns="http://www.w3.org/2000/svg">
<g clip-path="url(#clip0_17_1058)">
<path fill-rule="evenodd" clip-rule="evenodd" d="M-0.40625 41.5833H41.976L83.453 0.333252H-0.40625V41.5833Z" fill="url(#paint0_linear_17_1058)"/>
<path fill-rule="evenodd" clip-rule="evenodd" d="M49.3599 8.58336H41.0778L41.1054 27.9525L33.8936 8.57694H26.7426L20.5863 24.7589C19.9318 20.6412 15.6506 19.2204 12.2821 18.1561C10.0576 17.4457 7.69666 16.4007 7.72063 15.2457C7.73907 14.2979 8.9836 13.4188 11.457 13.5499C13.1164 13.6388 14.5821 13.7717 17.498 15.1724L20.3651 10.204C17.7064 8.85836 14.0299 8.00861 11.0154 8.00586H10.997C7.48186 8.00586 4.55491 9.13794 2.74066 11.0034C1.47585 12.305 0.793659 13.9605 0.766003 15.7911C0.719909 18.3101 1.64824 20.0958 3.59892 21.523C5.24724 22.7239 7.35557 23.503 9.21314 24.075C11.504 24.7809 13.3754 25.395 13.3524 26.7022C13.3339 27.1789 13.1532 27.6244 12.8085 27.9837C12.2369 28.5704 11.3611 28.7904 10.1488 28.8142C7.81005 28.8637 6.07693 28.4979 3.31499 26.8745L0.76416 31.907C3.52333 33.4672 6.45213 34.25 9.7801 34.25L10.5287 34.2445C13.4252 34.1923 15.776 33.502 17.6437 32.0079C17.7506 31.9226 17.8465 31.8364 17.9461 31.7494L17.6326 33.3554L24.6204 33.3334L25.8742 30.1415C27.1925 30.5889 28.6914 30.8364 30.2826 30.8364C31.8332 30.8364 33.2916 30.6017 34.585 30.18L35.4589 33.3334L47.9964 33.3453L48.0268 26.0688H50.6948C57.1433 26.0688 60.9552 22.8054 60.9552 17.3329C60.9534 11.238 57.2474 8.58336 49.3599 8.58336ZM30.2826 25.1402C29.3192 25.1402 28.4158 24.9734 27.6387 24.68L30.2531 16.4713H30.3038L32.8758 24.7029C32.1015 24.9779 31.2192 25.1402 30.2817 25.1402H30.2826ZM49.8448 20.4239H48.025V13.8084H49.8457C52.2702 13.8084 54.2062 14.6114 54.2062 17.0735C54.2043 19.6219 52.2702 20.4239 49.8457 20.4239" fill="white"/>
</g>
<defs>
<linearGradient id="paint0_linear_17_1058" x1="41.5234" y1="0.333252" x2="41.5234" y2="41.5842" gradientUnits="userSpaceOnUse">
<stop stop-color="#00AEEF"/>
<stop offset="0.212" stop-color="#0097DC"/>
<stop offset="0.519" stop-color="#007CC5"/>
<stop offset="0.792" stop-color="#006CB8"/>
<stop offset="1" stop-color="#0066B3"/>
</linearGradient>
<clipPath id="clip0_17_1058">
<rect width="89" height="42" fill="white"/>
</clipPath>
</defs>
</svg>
