<svg width="128" height="22" viewBox="0 0 128 22" fill="none" xmlns="http://www.w3.org/2000/svg">
<path d="M7.35146 18.3753V14.9527C9.30097 15.5659 11.0262 15.8725 12.5273 15.8725C14.5976 15.8707 15.6327 15.3216 15.6327 14.2251C15.6396 13.8324 15.4735 13.4563 15.1797 13.1954C14.8731 12.9025 14.0832 12.492 12.8101 11.9639C10.5265 11.0304 9.03829 10.2322 8.34543 9.5696C7.44848 8.6964 7 7.5935 7 6.2609C7 4.5448 7.6535 3.2351 8.96049 2.3317C10.2675 1.4283 11.9516 0.985401 14.0127 1.0027C15.1568 1.0027 16.8121 1.2133 18.9785 1.6343V4.9292C17.3676 4.2858 15.873 3.9641 14.4946 3.9641C12.5488 3.9641 11.5759 4.4995 11.5759 5.5704C11.58 5.9795 11.8051 6.3529 12.1634 6.5506C12.4856 6.7547 13.3826 7.1876 14.8543 7.8494C16.9713 8.7893 18.3808 9.6062 19.0828 10.3C19.9157 11.1237 20.3322 12.19 20.3322 13.4988C20.3322 15.3806 19.5153 16.8144 17.8815 17.8001C16.5544 18.6019 14.8383 19.0018 12.7332 19C10.9215 18.9965 9.11614 18.7846 7.35283 18.3685L7.35146 18.3753ZM23.0711 1.3062H27.9229V18.654H23.0711V1.3062ZM32.3587 18.654V1.3062H44.7875V4.4446H37.0307V8.3615H43.7853V11.2226H37.0307V15.3412H44.9893V18.6636L32.3587 18.654ZM48.1511 18.654V1.3062H54.4348L58.8088 12.3909L63.2762 1.3062H69.2442V18.654H64.6491V6.3666L59.5612 18.8215H56.5422L51.5517 6.3666V18.654H48.1511ZM73.6896 18.654V1.3062H86.1184V4.4446H78.3616V8.3615H85.1162V11.2226H78.3616V15.3412H86.3202V18.6636L73.6896 18.654ZM89.5081 18.654V1.3062H95.126L101.084 12.9208V1.3062H104.499V18.654H99.0401L92.9239 6.8842V18.654H89.5081ZM107.941 18.374V14.9513C109.875 15.5646 111.6 15.8712 113.116 15.8712C115.189 15.8712 116.225 15.3238 116.225 14.2292C116.231 13.8393 116.074 13.4645 115.785 13.1995C115.474 12.9048 114.679 12.4961 113.399 11.9735C111.123 11.0427 109.635 10.2419 108.935 9.571C108.038 8.7042 107.589 7.5967 107.589 6.2486C107.589 4.5407 108.243 3.2378 109.55 2.3399C110.84 1.4466 112.524 1 114.602 1C115.769 1 117.28 1.1858 119.136 1.5574L119.565 1.6315V4.9265C117.954 4.283 116.454 3.9613 115.064 3.9613C113.126 3.9613 112.157 4.4968 112.158 5.5676C112.162 5.9767 112.386 6.3502 112.744 6.5479C113.056 6.7446 113.958 7.1776 115.453 7.8466C117.556 8.7866 118.961 9.6039 119.668 10.2986C120.496 11.1223 120.91 12.1886 120.91 13.4974C120.91 15.3792 120.097 16.813 118.471 17.7987C117.144 18.6005 115.423 19.0005 113.309 18.9986C111.496 18.9959 109.691 18.7831 107.927 18.3671L107.941 18.374Z" fill="#009999"/>
</svg>
