<svg width="111" height="29" viewBox="0 0 111 29" fill="none" xmlns="http://www.w3.org/2000/svg">
<path d="M2.8294 24.7591C1.8789 24.7703 0.9351 24.6046 0.0494003 24.2712V22.8857C0.0494003 22.8857 1.8021 23.4215 2.8135 23.4215C3.7225 23.4215 4.6174 23.2594 4.6174 22.2015C4.6174 21.3877 3.9926 21.2068 3.2177 20.9952L2.4923 20.799C1.5497 20.5397 0 20.1643 0 18.3438C0 16.2963 1.7174 15.8015 3.486 15.8015C5.0746 15.8015 5.9818 16.3134 5.9818 16.3134V17.6493C5.1722 17.3095 4.3014 17.1269 3.4189 17.1119C2.3069 17.1119 1.5992 17.3235 1.5992 18.2516C1.5992 19.0501 2.2399 19.2464 3.0112 19.446L3.8937 19.6746C4.921 19.934 6.236 20.5277 6.236 22.1503C6.236 24.22 4.7021 24.7745 2.8312 24.7745" fill="#858588"/>
<path d="M12.2148 24.7589C10.4779 24.7589 8.05273 24.2214 8.05273 20.2801C8.05273 16.4496 10.4956 15.7979 12.2148 15.7979C13.8157 15.7979 16.3768 16.337 16.3768 20.2801C16.3768 24.2692 13.8845 24.7589 12.2148 24.7589ZM12.2148 17.0041C11.2881 17.0041 9.74373 17.2806 9.74373 20.2801C9.74373 23.3069 11.5299 23.5354 12.2148 23.5354C13.0391 23.5354 14.6859 23.2097 14.6859 20.2801C14.6859 17.2311 13.1344 17.0041 12.2148 17.0041Z" fill="#858588"/>
<path fill-rule="evenodd" clip-rule="evenodd" d="M20.2542 13.124V24.5949H18.5703V13.124H20.2542Z" fill="#858588"/>
<path d="M28.5569 24.5951L28.3804 23.4706C28.0186 23.8748 27.5712 24.199 27.0684 24.4213C26.5655 24.6435 26.0192 24.7586 25.4663 24.7589C24.1019 24.7589 22.6016 24.2846 22.6016 22.104C22.6016 19.7153 24.9279 19.2528 26.3594 19.2528H28.331V18.5022C28.331 17.3778 27.6391 17.1185 26.4777 17.1185C25.0656 17.1185 23.3605 17.7207 23.3605 17.7207V16.4001C24.4334 16.0114 25.5685 15.8076 26.7142 15.7979C28.6699 15.7979 30.0184 16.4974 30.0184 18.7633V24.5951H28.5569ZM28.338 20.2289L26.7371 20.2459C25.2033 20.2595 24.2943 20.652 24.2943 22.0545C24.2943 23.1619 25.0003 23.4878 25.8952 23.4878C27.1307 23.4878 28.338 22.3633 28.338 22.3633V20.2289Z" fill="#858588"/>
<path d="M36.1206 17.2637C35.1269 17.2637 34.3556 18.3062 34.3556 18.3062V24.5953H32.6699V15.9551H34.0025L34.2214 17.1494C34.2214 17.1494 34.7792 15.7981 36.3113 15.7981C37.1708 15.7981 37.5256 16.0267 37.5256 16.0267V17.5094C37.0809 17.3374 36.6048 17.2538 36.1259 17.2637" fill="#858588"/>
<path d="M50.8214 24.5951H48.4774L47.0954 20.002C46.7247 18.7786 46.1864 16.7602 46.1864 16.7602C46.1864 16.7602 45.6127 18.7957 45.2579 19.9866L43.8777 24.5934H41.5513L39.1914 15.9548H41.1118L42.1903 20.9029C42.4444 22.0426 42.7321 23.8358 42.7321 23.8358C42.7321 23.8358 43.0851 22.0426 43.4382 20.9029L44.972 15.9548H47.399L48.9328 20.9029C49.2858 22.0273 49.6565 23.8358 49.6565 23.8358C49.6565 23.8358 49.9283 22.191 50.2142 20.9029L51.2927 15.9548H53.1813L50.8214 24.5951Z" fill="#858588"/>
<path fill-rule="evenodd" clip-rule="evenodd" d="M56.9671 15.9055V24.5953H55.2832V15.9055H56.9671Z" fill="#858588"/>
<path d="M65.8471 24.5953V18.685C65.8471 17.6101 65.3935 17.2023 64.2444 17.2023C62.7441 17.2023 61.295 18.2943 61.295 18.2943V24.5987H59.6094V15.9551H60.9085L61.2456 17.1767C61.2456 17.1767 62.7282 15.793 64.6328 15.793C66.2831 15.793 67.531 16.4925 67.531 18.6935V24.5902L65.8471 24.5953Z" fill="#858588"/>
<path d="M76.2783 24.5949L76.0929 23.5046C75.7399 23.9085 75.2978 24.2309 74.799 24.4479C74.3002 24.6649 73.7574 24.7711 73.2106 24.7587C71.8126 24.7587 69.5039 24.1547 69.5039 20.2799C69.5039 16.3556 72.3545 15.7977 73.5495 15.7977C75.1504 15.7977 75.9094 16.6781 75.9094 16.6781V13.124H77.595V24.5949H76.2783ZM75.9076 17.9646C75.9076 17.9646 74.965 17.1012 73.7171 17.1012C72.4692 17.1012 71.1878 17.5738 71.1878 20.2799C71.1878 23.1276 72.5028 23.4705 73.5477 23.4705C74.7603 23.4705 75.9076 22.4775 75.9076 22.4775V17.9646Z" fill="#858588"/>
<path d="M82.7782 24.7589C81.8266 24.7704 80.8816 24.6048 79.9947 24.2709V22.8855C79.9947 22.8855 81.7492 23.4212 82.7588 23.4212C83.6678 23.4212 84.561 23.2591 84.561 22.2013C84.561 21.3874 83.9379 21.2065 83.1648 20.9949L82.4376 20.7988C81.495 20.5394 79.9453 20.164 79.9453 18.34C79.9453 16.2926 81.6627 15.7979 83.4331 15.7979C85.0216 15.7979 85.9271 16.3097 85.9271 16.3097V17.6456C85.1175 17.3057 84.2467 17.1232 83.3642 17.1082C82.254 17.1082 81.5445 17.3198 81.5445 18.248C81.5445 19.0465 82.1852 19.2426 82.9565 19.4422L83.839 19.671C84.8663 19.9303 86.1813 20.5241 86.1813 22.1467C86.1813 24.2163 84.6474 24.7708 82.7782 24.7708" fill="#858588"/>
<path d="M94.034 10.7015L94.267 10.6401C95.975 10.1458 97.651 9.5515 99.285 8.8605C100.902 8.2071 102.499 7.4222 103.904 6.3183C105.397 5.1717 106.521 3.6376 107.145 1.8958C107.237 1.6432 107.418 1.2764 107.436 1C105.193 3.9654 96.291 4.2708 96.291 4.2708L98.392 2.4076C92.277 2.4267 86.3204 4.292 81.3555 7.743C84.7159 8.0903 87.8767 9.4562 90.386 11.6451C91.589 11.2851 92.821 11.024 94.034 10.7015Z" fill="#F99D34"/>
<path d="M107.993 10.4097C107.993 10.4097 99.7781 9.80231 91.2461 12.4572C92.3871 13.6048 93.3391 14.9144 94.0701 16.3405C98.5571 13.9262 104.775 10.8431 107.998 10.408" fill="#F99D34"/>
<path d="M94.6289 17.5827C95.1599 18.9004 95.5009 20.2822 95.6439 21.6895L103.47 13.916L94.6289 17.5827Z" fill="#F99D34"/>
<path d="M87.3577 17.0352C87.2263 17.0288 87.0996 16.9853 86.9935 16.9101C86.8874 16.8348 86.8064 16.7311 86.7607 16.6118C86.7149 16.4925 86.7064 16.3629 86.7362 16.2389C86.7659 16.115 86.8326 16.0022 86.9281 15.9146C87.0235 15.827 87.1434 15.7683 87.273 15.746C87.4025 15.7236 87.5361 15.7385 87.657 15.7887C87.7779 15.839 87.8809 15.9225 87.9532 16.0288C88.0255 16.1351 88.0639 16.2596 88.0637 16.3868C88.0668 16.4757 88.0504 16.5642 88.0155 16.6465C87.9806 16.7288 87.9281 16.803 87.8614 16.8643C87.7947 16.9255 87.7153 16.9724 87.6285 17.0019C87.5417 17.0313 87.4494 17.0427 87.3577 17.0352ZM87.3577 15.8818C87.2865 15.8755 87.2148 15.8844 87.1476 15.9079C87.0804 15.9314 87.0194 15.9689 86.9688 16.0177C86.9183 16.0666 86.8795 16.1256 86.8552 16.1905C86.8309 16.2555 86.8217 16.3248 86.8282 16.3936C86.8282 16.4949 86.8592 16.5938 86.9174 16.678C86.9756 16.7622 87.0583 16.8278 87.1551 16.8665C87.2518 16.9053 87.3583 16.9154 87.461 16.8957C87.5637 16.8759 87.6581 16.8272 87.7321 16.7556C87.8062 16.684 87.8566 16.5928 87.8771 16.4935C87.8975 16.3942 87.887 16.2913 87.8469 16.1977C87.8068 16.1042 87.739 16.0243 87.6519 15.968C87.5648 15.9118 87.4624 15.8818 87.3577 15.8818ZM87.4707 16.7076L87.4389 16.595C87.4288 16.5395 87.4024 16.488 87.363 16.4465H87.273V16.7042H87.13V16.0404H87.3383C87.4742 16.0404 87.6154 16.066 87.6154 16.2418C87.6174 16.279 87.6068 16.3158 87.5851 16.3466C87.5634 16.3774 87.5319 16.4005 87.4954 16.4124C87.5363 16.454 87.5665 16.5042 87.5836 16.5591L87.6384 16.7076H87.4707ZM87.3401 16.1479H87.273V16.351C87.4265 16.351 87.4707 16.3151 87.4707 16.2418C87.4707 16.1684 87.446 16.1479 87.3401 16.1479Z" fill="#858588"/>
</svg>
