<svg width="128" height="60" viewBox="0 0 128 60" fill="none" xmlns="http://www.w3.org/2000/svg">
<path fill-rule="evenodd" clip-rule="evenodd" d="M48.1631 41.9927C45.0663 41.9927 43.3907 40.4164 43.3907 37.4747V28.8482H42.3108C41.7957 28.842 41.2992 28.631 40.9393 28.2649C40.5793 27.8987 40.3807 27.4084 40.3931 26.8995C40.418 25.8755 41.2682 25.0563 42.3108 25.0501H43.3907V22.4808C43.4838 21.3389 44.4519 20.4514 45.6187 20.4514C46.7854 20.4514 47.7598 21.3327 47.8466 22.4808V25.0501H49.5843C50.0806 25.0645 50.5521 25.2701 50.9002 25.6241C51.2483 25.978 51.4462 26.4528 51.4524 26.9492C51.4462 27.4456 51.2483 27.9204 50.9002 28.2743C50.5521 28.6282 50.0806 28.8339 49.5843 28.8482H47.8466V36.308C47.8466 37.6112 48.6845 38.1201 49.3795 38.1201H49.7643C51.0179 38.1201 51.7192 38.9393 51.7192 40.0068C51.7192 41.0742 51.0552 41.9927 48.1631 41.9927Z" fill="#FF4C00"/>
<path d="M62.0957 41.9927C56.5599 41.9927 53.2148 38.0208 53.2148 33.298C53.2148 28.6124 56.5661 24.6405 62.0957 24.6405C67.6688 24.6405 71.0139 28.6124 71.0139 33.298C71.0511 34.469 70.8442 35.6349 70.4062 36.7215C69.9682 37.8082 69.3088 38.7917 68.4699 39.6096C67.631 40.4275 66.631 41.0617 65.5336 41.472C64.4362 41.8823 63.2654 42.0596 62.0957 41.9927ZM62.0957 28.5069C59.3402 28.5069 57.8136 30.7287 57.8136 33.298C57.8136 35.8673 59.3465 38.1325 62.0957 38.1325C64.845 38.1325 66.4152 35.9107 66.4152 33.298C66.4152 30.7287 64.845 28.5069 62.0957 28.5069ZM86.647 41.7879H86.2995C85.9519 41.7879 84.3818 41.5148 84.3818 39.8702C83.2337 41.2045 81.2539 41.9927 79.057 41.9927C76.376 41.9927 73.2046 40.2115 73.2046 36.5127C73.2046 32.6463 76.376 31.1755 79.057 31.1755C81.2912 31.1755 83.2709 31.8954 84.3818 33.1925V30.9645C84.3818 29.2888 82.9172 28.1904 80.6892 28.1904C79.358 28.1627 78.0487 28.5322 76.9283 29.2516C76.6862 29.3987 76.4107 29.4819 76.1277 29.4936C75.1968 29.4812 74.4521 28.7303 74.4521 27.818C74.457 27.5163 74.5405 27.2212 74.6941 26.9616C75.7367 25.3169 79.4976 24.6343 81.4463 24.6343C85.2755 24.6343 88.7943 26.1424 88.7943 30.8962V39.6282C88.8005 40.8073 87.8386 41.7755 86.6346 41.7817L86.647 41.7879ZM84.3818 35.557C83.6495 34.6012 82.2593 34.1172 80.8319 34.1172C79.088 34.1172 77.6606 34.9984 77.6606 36.6182C77.6606 38.1573 79.088 39.051 80.8319 39.051C82.2593 39.051 83.6495 38.5731 84.3818 37.6112V35.557Z" fill="#FF4C00"/>
<path fill-rule="evenodd" clip-rule="evenodd" d="M99.2581 41.9927C97.0673 41.9927 93.5485 41.2728 92.5059 39.7958C92.3011 39.5289 92.1894 39.2062 92.1956 38.8711C92.2084 38.3892 92.4077 37.931 92.7514 37.593C93.0952 37.255 93.5567 37.0636 94.0388 37.0589C94.3615 37.0589 94.6718 37.1458 94.9449 37.3134C96.2667 38.0643 98.0107 38.6477 99.4691 38.6477C101.387 38.6477 102.293 37.8967 102.293 36.8665C102.293 34.1296 92.2949 36.3514 92.2949 29.8474C92.2949 27.0733 94.7711 24.6467 99.1898 24.6467C101.381 24.6467 104.378 25.3356 105.321 26.6637C105.502 26.9081 105.6 27.2038 105.601 27.5077C105.57 28.4262 104.8 29.1586 103.863 29.1524C103.571 29.153 103.284 29.0827 103.025 28.9475C101.862 28.2979 100.553 27.9562 99.2208 27.9546C97.6197 27.9546 96.5771 28.6745 96.5771 29.5992C96.5771 32.063 106.538 30.0088 106.538 36.6803C106.538 39.6965 103.925 41.9865 99.2581 41.9865V41.9927ZM115.45 41.9927C112.353 41.9927 110.677 40.4164 110.677 37.4747V28.8483H109.597C109.082 28.842 108.586 28.631 108.226 28.2649C107.866 27.8987 107.667 27.4084 107.68 26.8995C107.705 25.8755 108.555 25.0563 109.597 25.0501H110.677V22.4808C110.728 21.9255 110.985 21.4094 111.398 21.0339C111.81 20.6584 112.348 20.4506 112.905 20.4514C114.072 20.4514 115.046 21.3327 115.133 22.4808V25.0501H116.877C117.373 25.0645 117.845 25.2701 118.193 25.6241C118.541 25.978 118.739 26.4528 118.745 26.9492C118.739 27.4456 118.541 27.9204 118.193 28.2743C117.845 28.6282 117.373 28.8339 116.877 28.8483H115.133V36.308C115.133 37.6112 115.971 38.1201 116.666 38.1201H117.051C118.305 38.1201 119 38.9393 119 40.0068C119 41.0742 118.342 41.9927 115.444 41.9927H115.45Z" fill="#FF4C00"/>
<path d="M37.5575 35.1908C37.5824 33.36 37.5017 31.5292 37.3155 29.7108C37.179 28.482 36.7631 26.9056 35.4288 26.5829C35.6008 26.6265 35.7817 26.6201 35.9502 26.5643C37.4955 25.7575 37.3776 23.7654 36.8314 22.3255C36.1115 20.4389 34.4048 19.0984 32.7106 18.2109C29.5685 16.6441 26.0842 15.8886 22.5753 16.0133C19.0664 16.1379 15.6445 17.1388 12.6215 18.9246C11.0886 19.8679 9.32605 21.7111 10.1018 23.7654C10.3121 24.2766 10.6223 24.7408 11.0141 25.1307L11.5975 25.7389C10.8093 26.8063 10.2321 27.7745 9.85978 29.0716C8.74268 32.9814 8.92886 35.4949 9.23296 38.6351C9.42535 40.5776 10.0646 43.4697 12.305 43.7924C14.1296 44.0468 16.1093 43.4449 17.9339 43.2276C19.9447 42.9918 21.9741 42.6194 24.0096 42.6753C26.8769 42.7498 29.7192 43.4262 32.5927 43.4573C34.1069 43.4697 36.6266 43.6186 37.0797 41.6203C37.5079 39.7212 37.5265 37.7477 37.5265 35.8114C37.5513 35.6066 37.5513 35.3956 37.5513 35.197L37.5575 35.1908ZM34.2807 38.4738C33.567 40.0812 31.55 39.9012 30.1413 39.7833L23.8421 39.0323C21.9678 38.9765 20.1122 39.3302 18.2876 39.7336C16.9223 40.0315 15.017 40.8197 13.782 39.7709C12.4105 38.6103 12.1684 36.6306 12.1498 34.9611C12.1756 33.4537 12.325 31.9509 12.5967 30.4679C12.7642 29.5494 13.0373 28.6558 13.3972 27.7993C13.8875 26.5581 14.6136 25.8072 14.6509 25.8444C14.2847 25.4658 13.8441 25.261 13.5958 24.7459C12.6587 22.791 14.9984 21.134 16.2769 20.5692C20.7515 18.5709 27.0072 18.7695 31.2335 21.3326C32.5492 22.1332 35.1061 24.8825 32.7168 26.254C34.1876 26.9491 34.5662 29.0467 34.7276 30.5362C34.9857 32.9285 34.9105 35.345 34.5041 37.7166C34.4602 37.9778 34.383 38.2322 34.2745 38.4738H34.2807Z" fill="#FF4C00"/>
</svg>
