<svg width="242" height="36" viewBox="0 0 242 36" fill="none" xmlns="http://www.w3.org/2000/svg">
<g clip-path="url(#clip0_188_1707)">
<path opacity="0.2" d="M29.3898 23.0961V25.2372C29.3898 26.1619 29.0057 27.0226 28.3584 27.6343C28.1735 27.805 27.9672 27.9686 27.7467 28.0895L27.4124 28.2887L27.0781 28.4736L22.5897 31.0699L16.3516 34.6762C15.3273 35.2666 14.0754 35.2666 13.0582 34.6762L1.66313 28.0895C0.645968 27.4991 0.0200195 26.4179 0.0200195 25.2372V12.078C0.0200195 10.8972 0.645968 9.81603 1.67025 9.22565L10.5473 4.09712L13.0654 2.64606C13.2361 2.54647 13.421 2.46112 13.6059 2.38998C13.6273 2.37576 13.67 2.36865 13.7055 2.35442C13.8051 2.31885 13.9118 2.2904 14.0114 2.26906C14.047 2.25484 14.0754 2.25484 14.111 2.24772C14.175 2.2335 14.2461 2.22638 14.3101 2.22638C14.3742 2.21216 14.4239 2.21216 14.4808 2.21216H14.5662V4.58792C14.5662 5.41304 15.2419 6.08878 16.0671 6.08878H19.4386L19.46 6.49423V13.6429C19.46 14.468 20.1357 15.1437 20.9608 15.1437H26.3454V21.6095C26.3454 22.3208 26.8504 22.9254 27.5262 23.0748C27.6258 23.0961 27.7325 23.1104 27.832 23.1104H29.3827L29.3898 23.0961Z" fill="#00AEEF"/>
<path opacity="0.33" d="M29.3841 23.0961V25.2372C29.3841 26.1619 29 27.0225 28.3527 27.6343C28.2389 27.7481 28.118 27.8405 27.9828 27.9259C28.5875 27.3213 28.9289 26.4962 28.9289 25.6142V23.4731H27.3782C27.2644 23.4731 27.1719 23.4589 27.0724 23.4376C26.3966 23.2882 25.8916 22.6907 25.8916 21.9723V15.5065H20.4928C19.6676 15.5065 18.9919 14.8308 18.9919 14.0056V6.87124L18.9706 6.4658H15.599C14.7738 6.4658 14.0981 5.79006 14.0981 4.96494V2.58918H14.027C13.963 2.58918 13.9132 2.6034 13.8563 2.6034C13.7922 2.61763 13.7211 2.62474 13.6571 2.62474C13.6215 2.62474 13.5931 2.63897 13.5575 2.64608C13.4579 2.66742 13.3512 2.69587 13.2516 2.73144C13.2161 2.74567 13.1876 2.75278 13.1521 2.76701C12.9671 2.83102 12.7822 2.91638 12.6115 3.02308L10.0934 4.47414L1.20208 9.61688C1.11673 9.66668 1.03137 9.71647 0.953125 9.77337C1.1594 9.56709 1.39414 9.38215 1.65732 9.23278L10.5344 4.10426L13.0525 2.6532C13.2232 2.55361 13.4081 2.46826 13.5931 2.39713C13.6144 2.3829 13.6571 2.37579 13.6927 2.36156C13.7922 2.326 13.8989 2.29754 13.9985 2.2762C14.0341 2.26198 14.0625 2.26198 14.0981 2.25486C14.1621 2.24064 14.2333 2.23353 14.2973 2.23353C14.3613 2.2193 14.4111 2.2193 14.468 2.2193H14.5533V4.59506C14.5533 5.42018 15.2291 6.09592 16.0542 6.09592H19.4258L19.4471 6.50136V13.65C19.4471 14.4751 20.1229 15.1508 20.948 15.1508H26.3326V21.6166C26.3326 22.3279 26.8376 22.9325 27.5134 23.0819C27.613 23.1032 27.7197 23.1175 27.8192 23.1175H29.3699V23.1032L29.3841 23.0961Z" fill="#A0B1DB"/>
<path opacity="0.17" d="M28.3513 27.6343C28.1664 27.805 27.9601 27.9686 27.7396 28.0895L27.4053 28.2887L27.071 28.4736L22.5827 31.0699L16.3445 34.6762C15.3202 35.2666 14.0683 35.2666 13.0511 34.6762L1.66314 28.0895C0.645969 27.4991 0.0200195 26.4179 0.0200195 25.2372V12.078C0.0200195 10.8972 0.645969 9.81603 1.67025 9.22565L10.5473 4.09712L13.0654 2.64606C13.2361 2.54647 13.421 2.46112 13.606 2.38998C13.6273 2.37576 13.67 2.36865 13.7056 2.35442C13.8051 2.31885 13.9118 2.2904 14.0114 2.26906C14.047 2.25484 14.0754 2.25484 14.111 2.24772C14.175 2.2335 14.2461 2.22638 14.3102 2.22638C14.3742 2.21216 14.424 2.21216 14.4809 2.21216H14.5164C14.552 2.2335 14.5662 2.26195 14.5662 2.26195C14.5662 2.26195 11.3582 9.0905 15.1353 14.1906C17.7529 17.7187 23.3366 17.4626 26.3526 21.0903V21.6095C26.3526 22.3208 26.8576 22.9254 27.5333 23.0748C28.0241 24.2769 28.33 25.7707 28.3585 27.6485L28.3513 27.6343Z" fill="url(#paint0_linear_188_1707)"/>
<path d="M27.4053 28.2887L27.071 28.4736L22.5827 31.0699L16.3445 34.6762C15.3202 35.2666 14.0683 35.2666 13.0512 34.6762L1.66314 28.0895C1.12255 27.7837 0.688648 27.3284 0.411238 26.7878C0.162281 26.3184 0.0200195 25.7778 0.0200195 25.2372V12.078C0.0200195 10.8972 0.645969 9.81603 1.67025 9.22565L10.5474 4.09712L13.0654 2.64606C13.2361 2.54647 13.421 2.46112 13.606 2.38998C13.6273 2.37576 13.67 2.36865 13.7056 2.35442C13.8051 2.31885 13.9118 2.2904 14.0114 2.26906C14.047 2.25484 14.0754 2.25484 14.111 2.24772C14.175 2.2335 14.2462 2.22638 14.3102 2.22638C14.3742 2.21216 14.424 2.21216 14.4809 2.21216H14.5805V2.26195C13.2788 4.06867 12.5604 6.30929 12.5604 8.54991C12.5604 9.07627 12.5959 9.60975 12.6813 10.1219C13.101 12.8035 14.6231 15.3002 16.7855 16.9362C17.1554 17.2207 17.5324 17.4768 17.945 17.6973C19.6948 18.6789 21.7078 19.1626 23.4078 20.2438C25.4492 21.5597 26.9145 23.7505 27.3342 26.1476C27.4338 26.8589 27.4551 27.5774 27.4053 28.3029V28.2887Z" fill="url(#paint1_linear_188_1707)"/>
<path opacity="0.2" d="M27.2999 26.1334C26.8803 23.7363 25.415 21.5455 23.3735 20.2296C22.9681 19.9735 22.5484 19.753 22.1216 19.5396L21.0618 20.1442L15.9475 23.0961C15.2433 23.5016 14.3826 23.5016 13.6855 23.0961L9.93695 20.9409C9.23275 20.5354 8.79174 19.7815 8.79174 18.9706V7.13441C8.79174 5.95363 9.41769 4.87245 10.442 4.28206L13.8705 2.30463C13.8065 2.31885 13.7353 2.34019 13.6713 2.36864C13.6357 2.38287 13.6073 2.38998 13.5717 2.40421C13.3868 2.46823 13.2018 2.55358 13.0311 2.66028L10.5202 4.09712L1.65023 9.22565C0.625949 9.81603 0 10.8972 0 12.078V25.2372C0 25.3083 0 25.3866 0.0142261 25.4435C0.0142261 25.4648 0.0142261 25.5075 0.0284522 25.5288C0.0284522 25.5644 0.0426784 25.6142 0.0426784 25.6497C0.0426784 25.6853 0.0569045 25.7209 0.0569045 25.7635C0.0569045 25.8062 0.0711306 25.8276 0.0711306 25.8631C0.0853567 25.8987 0.0853567 25.9343 0.0924698 25.9841C0.106696 26.0054 0.106696 26.0338 0.113809 26.0694C0.128035 26.105 0.135148 26.1548 0.149374 26.1903C0.1636 26.2117 0.1636 26.2401 0.170713 26.2615C0.18494 26.297 0.192053 26.3326 0.206279 26.3824C0.220505 26.4037 0.227618 26.4322 0.227618 26.4535C0.241844 26.4891 0.248957 26.5246 0.277409 26.5673C0.291636 26.5887 0.298749 26.6313 0.312975 26.6527C0.327201 26.674 0.334314 26.7167 0.34854 26.738C0.362766 26.7523 0.362766 26.7736 0.369879 26.7878C0.384105 26.8021 0.391218 26.8234 0.391218 26.8376C0.405445 26.8732 0.426784 26.9016 0.455236 26.9372C0.476575 26.9585 0.490801 27.0012 0.519254 27.0226C0.540593 27.0581 0.554819 27.0866 0.583271 27.1221C0.60461 27.1435 0.618836 27.1862 0.647289 27.2075C0.668628 27.2431 0.69708 27.2715 0.718419 27.3071C0.739758 27.3284 0.753985 27.3569 0.782437 27.3782C0.803776 27.4138 0.846454 27.4422 0.867794 27.4778C0.889133 27.4991 0.903359 27.5276 0.931811 27.5418C0.967376 27.5774 0.995829 27.6058 1.03139 27.6414C1.05273 27.6627 1.06696 27.677 1.09541 27.7054C1.13098 27.741 1.16654 27.7694 1.20922 27.805C1.23056 27.8192 1.24479 27.8406 1.27324 27.8548C1.32303 27.8904 1.35859 27.9188 1.40839 27.9544C1.42261 27.9686 1.44395 27.9757 1.45818 27.9899C1.5222 28.0255 1.5791 28.0753 1.65734 28.1109L13.0454 34.6905C14.0696 35.2808 15.3215 35.2808 16.3387 34.6905L22.584 31.0841L24.2911 30.1025L27.0581 28.5021L27.3924 28.3171C27.4564 27.556 27.428 26.8447 27.307 26.1263L27.2999 26.1334Z" fill="#1F1E5B"/>
<path opacity="0.2" d="M27.2999 26.1334C26.9799 24.2769 26.0338 22.5556 24.6681 21.2539L22.5911 22.456L16.3458 26.0623C15.3216 26.6527 14.0697 26.6527 13.0525 26.0623L6.80722 22.456C6.06035 22.015 5.59089 21.2112 5.59089 20.3434V8.78466C5.59089 7.83863 5.99633 6.94949 6.6863 6.33777L1.6787 9.22568C0.654424 9.81606 0.0213623 10.8972 0.0213623 12.078V25.223C0.0213623 25.2941 0.0213623 25.3723 0.0355884 25.4292C0.0355884 25.4506 0.0355884 25.4933 0.0498145 25.5146C0.0498145 25.5502 0.0640407 25.6 0.0640407 25.6355C0.0640407 25.6711 0.0782668 25.7067 0.0782668 25.7493C0.0782668 25.792 0.0924929 25.8134 0.0924929 25.8489C0.106719 25.8845 0.106719 25.92 0.113832 25.9698C0.128058 25.9912 0.128058 26.0196 0.135171 26.0552C0.149397 26.0908 0.15651 26.1406 0.170737 26.1761C0.184963 26.1975 0.184963 26.2259 0.192076 26.2473C0.206302 26.2828 0.213415 26.3184 0.227641 26.3682C0.241867 26.3895 0.24898 26.418 0.24898 26.4393C0.263206 26.4749 0.270319 26.5104 0.298772 26.5531C0.312998 26.5745 0.320111 26.6171 0.334337 26.6385C0.348563 26.6598 0.355676 26.7025 0.369902 26.7238C0.384128 26.7381 0.384128 26.7594 0.391241 26.7736C0.405468 26.7878 0.412581 26.8092 0.412581 26.8234C0.426807 26.859 0.448146 26.8874 0.476598 26.923C0.497937 26.9443 0.512163 26.987 0.540616 27.0083C0.561955 27.0439 0.576181 27.0724 0.604633 27.1079C0.625972 27.1293 0.640198 27.1719 0.668651 27.1933C0.68999 27.2289 0.718442 27.2573 0.739781 27.2929C0.76112 27.3142 0.775347 27.3427 0.803799 27.364C0.825138 27.3996 0.867816 27.428 0.889155 27.4636C0.910495 27.4849 0.924721 27.5134 0.953173 27.5276C0.988738 27.5632 1.01719 27.5916 1.05276 27.6272C1.0741 27.6485 1.08832 27.6628 1.11677 27.6912C1.15234 27.7268 1.1879 27.7552 1.23058 27.7908C1.25192 27.805 1.26615 27.8264 1.2946 27.8406C1.34439 27.8761 1.37996 27.9046 1.42975 27.9402C1.44397 27.9544 1.46531 27.9615 1.47954 27.9757C1.54356 28.0113 1.60046 28.0611 1.6787 28.0966L13.0667 34.6762C14.091 35.2666 15.3429 35.2666 16.3601 34.6762L22.6053 31.0699L27.0937 28.4736L27.428 28.2887V28.2033C27.4493 27.4992 27.4138 26.8163 27.3071 26.1263L27.2999 26.1334Z" fill="#1F1E5B"/>
<path opacity="0.2" d="M27.2999 26.1334C27.179 25.4292 26.9656 24.7321 26.674 24.0777L22.5769 26.4392L16.3316 30.0456C15.3073 30.636 14.0554 30.636 13.0382 30.0456L3.23644 24.3907C2.66029 24.0564 2.31175 23.4447 2.31175 22.776V10.193C2.31175 9.62398 2.46112 9.07628 2.73142 8.59259L1.65023 9.21854C0.625949 9.80892 0 10.8901 0 12.0709V25.2158C0 25.2869 0 25.3652 0.0142261 25.4221C0.0142261 25.4434 0.0142261 25.4861 0.0284522 25.5074C0.0284522 25.543 0.0426784 25.5928 0.0426784 25.6284C0.0426784 25.6639 0.0569045 25.6995 0.0569045 25.7422C0.0569045 25.7848 0.0711306 25.8062 0.0711306 25.8418C0.0853567 25.8773 0.0853567 25.9129 0.0924698 25.9627C0.106696 25.984 0.106696 26.0125 0.113809 26.048C0.128035 26.0836 0.135148 26.1334 0.149374 26.169C0.1636 26.1903 0.1636 26.2187 0.170713 26.2401C0.18494 26.2757 0.192053 26.3112 0.206279 26.361C0.220505 26.3823 0.227618 26.4108 0.227618 26.4321C0.241844 26.4677 0.248957 26.5033 0.277409 26.5459C0.291636 26.5673 0.298749 26.61 0.312975 26.6313C0.327201 26.6526 0.334314 26.6953 0.34854 26.7167C0.362766 26.7309 0.362766 26.7522 0.369879 26.7665C0.384105 26.7807 0.391218 26.802 0.391218 26.8162C0.405445 26.8518 0.426784 26.8803 0.455236 26.9158C0.476575 26.9372 0.490801 26.9798 0.519254 27.0012C0.540593 27.0367 0.554819 27.0652 0.583271 27.1008C0.60461 27.1221 0.618836 27.1648 0.647289 27.1861C0.668628 27.2217 0.69708 27.2501 0.718419 27.2857C0.739758 27.307 0.753985 27.3355 0.782437 27.3568C0.803776 27.3924 0.846454 27.4209 0.867794 27.4564C0.889133 27.4778 0.903359 27.5062 0.931811 27.5204C0.967376 27.556 0.995829 27.5845 1.03139 27.62C1.05273 27.6414 1.06696 27.6556 1.09541 27.684C1.13098 27.7196 1.16654 27.7481 1.20922 27.7836C1.23056 27.7978 1.24479 27.8192 1.27324 27.8334C1.32303 27.869 1.35859 27.8974 1.40839 27.933C1.42261 27.9472 1.44395 27.9543 1.45818 27.9686C1.5222 28.0041 1.5791 28.0539 1.65734 28.0895L13.0454 34.6691C14.0696 35.2594 15.3215 35.2594 16.3387 34.6691L22.584 31.0627L27.3924 28.2815C27.4564 27.5418 27.428 26.8305 27.307 26.1192L27.2999 26.1334Z" fill="#1F1E5B"/>
<path opacity="0.39" d="M27.4137 28.1037C27.4137 28.1677 27.3995 28.2246 27.3995 28.2886L22.5769 31.0698L16.3387 34.6761C15.3144 35.2665 14.0626 35.2665 13.0454 34.6761L1.6574 28.0894C1.59338 28.0539 1.52225 28.0183 1.45823 27.9685C1.444 27.9543 1.42267 27.9472 1.40844 27.933C1.35865 27.8974 1.32308 27.8689 1.27329 27.8334C1.25195 27.8191 1.23773 27.7978 1.20927 27.7836C1.17371 27.7622 1.13814 27.7196 1.09547 27.684C1.07413 27.6627 1.0599 27.6484 1.03145 27.62C0.995883 27.5986 0.967431 27.556 0.931865 27.5204C0.910526 27.4991 0.8963 27.4706 0.867848 27.4493C0.846509 27.4137 0.803831 27.3853 0.782491 27.3497C0.761152 27.3283 0.746926 27.2999 0.718474 27.2786C0.690022 27.2572 0.668683 27.2145 0.647343 27.179C0.626004 27.1576 0.611778 27.1292 0.583326 27.0936C0.561987 27.058 0.533535 27.0296 0.519309 26.994C0.497969 26.9727 0.483743 26.93 0.455291 26.9087C0.433952 26.8731 0.419726 26.8447 0.4055 26.8091C0.391274 26.7949 0.384161 26.7735 0.384161 26.7593C0.369935 26.7451 0.369935 26.7237 0.362822 26.7095C0.348595 26.6882 0.341482 26.6455 0.327256 26.6242C0.31303 26.6028 0.305917 26.5601 0.291691 26.5388C0.277465 26.5032 0.270352 26.4677 0.2419 26.425C0.227674 26.4036 0.220561 26.3752 0.220561 26.3539C0.206335 26.3183 0.199221 26.2827 0.184995 26.2329C0.170769 26.2116 0.170769 26.1831 0.163656 26.1618C0.14943 26.1262 0.142317 26.0764 0.128091 26.0409C0.113865 26.0195 0.113865 25.9911 0.106752 25.9555C0.0925258 25.92 0.0854127 25.8844 0.0854127 25.8346C0.0854127 25.8133 0.0711866 25.7706 0.0711866 25.735C0.0711866 25.6995 0.0569605 25.6639 0.0569605 25.6212C0.0569605 25.5785 0.0427344 25.5359 0.0427344 25.5003C0.0427344 25.479 0.0427344 25.4363 0.0285083 25.4149C0.0285083 25.3438 0.0142822 25.2798 0.0142822 25.2087V12.0495C0.0142822 11.0252 0.490856 10.0721 1.2804 9.45325C0.761152 10.0436 0.469517 10.8047 0.469517 11.6156V24.7748C0.469517 24.8459 0.469517 24.9241 0.483743 24.981C0.483743 25.0024 0.483743 25.0451 0.497969 25.0664C0.497969 25.102 0.512196 25.1518 0.512196 25.1873C0.512196 25.2229 0.526422 25.2584 0.526422 25.3011C0.526422 25.3438 0.540648 25.3651 0.540648 25.4007C0.554874 25.4363 0.554874 25.4718 0.561987 25.5216C0.576213 25.543 0.576213 25.5714 0.583326 25.607C0.597552 25.6426 0.604665 25.6923 0.618891 25.7279C0.633117 25.7492 0.633117 25.7777 0.64023 25.799C0.654456 25.8346 0.66157 25.8702 0.675796 25.92C0.690022 25.9413 0.697135 25.9698 0.697135 25.9911C0.711361 26.0267 0.718474 26.0622 0.746926 26.1049C0.761152 26.1262 0.768265 26.1689 0.782491 26.1903C0.796717 26.2116 0.80383 26.2543 0.818057 26.2756C0.832283 26.2898 0.832283 26.3112 0.839396 26.3254C0.853622 26.3396 0.860735 26.361 0.860735 26.3752C0.874961 26.4108 0.8963 26.4392 0.910526 26.4748C0.924752 26.4961 0.946091 26.5388 0.974544 26.5601C0.995883 26.5957 1.01011 26.6242 1.03856 26.6597C1.0599 26.6811 1.07413 26.7095 1.10258 26.7451C1.12392 26.7806 1.15237 26.8091 1.17371 26.8447C1.19505 26.866 1.20927 26.8944 1.23773 26.9158C1.25907 26.9514 1.30174 26.9798 1.32308 27.0154C1.34442 27.0367 1.35865 27.0652 1.3871 27.0865C1.42267 27.1221 1.45112 27.1505 1.48668 27.1861C1.50802 27.2074 1.52225 27.2216 1.5507 27.2501C1.58627 27.2857 1.62183 27.3141 1.66451 27.3497C1.68585 27.3639 1.70007 27.3853 1.72853 27.3995C1.77832 27.435 1.81388 27.4635 1.86367 27.4991C1.8779 27.5133 1.89924 27.5204 1.91347 27.5346C1.97748 27.5702 2.03439 27.62 2.11263 27.6555L13.5006 34.2351C14.5249 34.8255 15.7768 34.8255 16.794 34.2351L23.0392 30.6288L27.4066 28.0966L27.4137 28.1037Z" fill="#10101F"/>
<path opacity="0.41" d="M27.3996 28.2887L27.0652 28.4736C27.1008 27.7979 27.0795 27.1221 26.9514 26.4535C26.5318 24.0564 25.0665 21.8656 23.025 20.5497C21.325 19.4685 19.3262 18.9848 17.5622 18.0032C14.781 16.4383 12.7893 13.5646 12.2985 10.4278C11.893 7.85995 12.5048 5.14276 13.9345 2.95905C14.1052 2.70298 14.3186 2.45402 14.5391 2.24774V2.26197C13.2374 4.06869 12.519 6.3093 12.519 8.54992C12.519 9.07628 12.5546 9.60976 12.6399 10.1219C13.1307 13.273 15.1224 16.1324 17.9036 17.6973C19.6534 18.6789 21.6664 19.1626 23.3664 20.2438C25.4079 21.5597 26.8732 23.7505 27.2929 26.1476C27.4138 26.8518 27.4422 27.5631 27.3924 28.2887H27.3996Z" fill="#56C8E0"/>
<path d="M28.0895 6.07452H20.9408C20.7203 6.07452 20.5354 6.25946 20.5354 6.47997V13.6286C20.5354 13.8491 20.7203 14.034 20.9408 14.034H28.0895C28.31 14.034 28.4949 13.8491 28.4949 13.6286V6.47997C28.4949 6.25946 28.31 6.07452 28.0895 6.07452Z" fill="url(#paint2_linear_188_1707)"/>
<path d="M20.2295 0H16.047C15.8265 0 15.6416 0.18494 15.6416 0.405446V4.58794C15.6416 4.80844 15.8265 4.99338 16.047 4.99338H20.2295C20.45 4.99338 20.635 4.80844 20.635 4.58794V0.405446C20.635 0.170714 20.4643 0 20.2295 0Z" fill="url(#paint3_linear_188_1707)"/>
<path d="M27.8334 22.0007H33.8226C34.0431 22.0007 34.2281 21.8158 34.2281 21.5953V15.6061C34.2281 15.3856 34.0431 15.2006 33.8226 15.2006H27.8334C27.6129 15.2006 27.428 15.3856 27.428 15.6061V21.5953C27.428 21.8158 27.6129 22.0007 27.8334 22.0007Z" fill="url(#paint4_linear_188_1707)"/>
<path d="M34.7828 15.6061V17.9463C34.7828 18.1668 34.9678 18.3517 35.1883 18.3517H37.5285C37.749 18.3517 37.9339 18.1668 37.9339 17.9463V15.6061C37.9339 15.3856 37.749 15.2006 37.5285 15.2006H35.1883C34.9678 15.2006 34.7828 15.3856 34.7828 15.6061Z" fill="url(#paint5_linear_188_1707)"/>
<path d="M23.786 2.51801H22.0007C21.7802 2.51801 21.5952 2.70295 21.5952 2.92345V4.70883C21.5952 4.92934 21.7802 5.11428 22.0007 5.11428H23.786C24.0065 5.11428 24.1915 4.92934 24.1915 4.70883V2.93768C24.1915 2.70295 24.0065 2.51801 23.786 2.51801Z" fill="url(#paint6_linear_188_1707)"/>
<path d="M23.0249 0H22.0007C21.7802 0 21.5952 0.18494 21.5952 0.405444V1.42973C21.5952 1.65023 21.7802 1.83517 22.0007 1.83517H23.0249C23.2454 1.83517 23.4304 1.65023 23.4304 1.42973V0.405444C23.4304 0.170713 23.2454 0 23.0249 0Z" fill="url(#paint7_linear_188_1707)"/>
<path d="M24.7321 0H24.5258C24.3053 0 24.1204 0.18494 24.1204 0.405445V0.611724C24.1204 0.832229 24.3053 1.01717 24.5258 1.01717H24.7321C24.9526 1.01717 25.1375 0.832229 25.1375 0.611724V0.405445C25.1375 0.170714 24.9526 0 24.7321 0Z" fill="url(#paint8_linear_188_1707)"/>
<path d="M29.8463 1.70715H29.6401C29.4196 1.70715 29.2346 1.89209 29.2346 2.1126V2.31888C29.2346 2.53938 29.4196 2.72432 29.6401 2.72432H29.8463C30.0668 2.72432 30.2518 2.53938 30.2518 2.31888V2.1126C30.2518 1.89209 30.0668 1.70715 29.8463 1.70715Z" fill="#69C8F2"/>
<path d="M25.4363 5.12852H27.9117C28.1322 5.12852 28.3171 4.94358 28.3171 4.72308V2.24773C28.3171 2.02722 28.1322 1.84229 27.9117 1.84229H25.4363C25.2158 1.84229 25.0309 2.02722 25.0309 2.24773V4.72308C25.0309 4.94358 25.2158 5.12852 25.4363 5.12852Z" fill="url(#paint9_linear_188_1707)"/>
<path d="M29.7112 5.12851H30.643C30.8635 5.12851 31.0485 4.94357 31.0485 4.72306V3.79125C31.0485 3.57074 30.8635 3.3858 30.643 3.3858H29.7112C29.4907 3.3858 29.3058 3.57074 29.3058 3.79125V4.72306C29.3058 4.94357 29.4765 5.12851 29.7112 5.12851Z" fill="#69C8F2"/>
<path d="M29.7752 5.75446H29.7112C29.4907 5.75446 29.3058 5.93939 29.3058 6.1599V6.22392C29.3058 6.44442 29.4907 6.62936 29.7112 6.62936H29.7752C29.9958 6.62936 30.1807 6.44442 30.1807 6.22392V6.1599C30.1807 5.93939 29.9958 5.75446 29.7752 5.75446Z" fill="#69C8F2"/>
<path d="M31.205 6.62936H31.269C31.4895 6.62936 31.6745 6.44442 31.6745 6.22392V6.1599C31.6745 5.93939 31.4895 5.75446 31.269 5.75446H31.205C30.9845 5.75446 30.7996 5.93939 30.7996 6.1599V6.22392C30.7996 6.44442 30.9845 6.62936 31.205 6.62936Z" fill="#69C8F2"/>
<path d="M32.6987 10.5416H29.7468C29.5262 10.5416 29.3413 10.7265 29.3413 10.947V13.8989C29.3413 14.1194 29.5262 14.3044 29.7468 14.3044H32.6987C32.9192 14.3044 33.1041 14.1194 33.1041 13.8989V10.947C33.1183 10.7123 32.9334 10.5416 32.6987 10.5416Z" fill="url(#paint10_linear_188_1707)"/>
<path d="M34.2992 14.3186H35.1598C35.3803 14.3186 35.5653 14.1337 35.5653 13.9132V13.0525C35.5653 12.832 35.3803 12.647 35.1598 12.647H34.2992C34.0787 12.647 33.8937 12.832 33.8937 13.0525V13.9132C33.8795 14.1337 34.0644 14.3186 34.2992 14.3186Z" fill="#69C8F2"/>
<path d="M29.754 9.64534H31.5393C31.7598 9.64534 31.9448 9.4604 31.9448 9.2399V7.45452C31.9448 7.23401 31.7598 7.04907 31.5393 7.04907H29.754C29.5335 7.04907 29.3485 7.23401 29.3485 7.45452V9.2399C29.3485 9.4604 29.5335 9.64534 29.754 9.64534Z" fill="url(#paint11_linear_188_1707)"/>
<path d="M33.8226 8.00934H32.9975C32.777 8.00934 32.592 8.19428 32.592 8.41478V9.2399C32.592 9.4604 32.777 9.64534 32.9975 9.64534H33.8226C34.0431 9.64534 34.228 9.4604 34.228 9.2399V8.41478C34.228 8.19428 34.0431 8.00934 33.8226 8.00934Z" fill="#69C8F2"/>
<path d="M32.9975 6.62939C32.777 6.62939 32.592 6.81433 32.592 7.03484C32.592 7.25534 32.777 7.44028 32.9975 7.44028C33.218 7.44028 33.4029 7.25534 33.4029 7.03484C33.4029 6.81433 33.218 6.62939 32.9975 6.62939Z" fill="#69C8F2"/>
<path d="M47.7856 6.67914H51.7121V22.8258H61.0871V26.6171H47.7856V6.67914Z" fill="#283A3E"/>
<path d="M63.3846 16.673C63.3846 15.3002 63.6478 13.9985 64.1671 12.775C64.6935 11.5445 65.419 10.4562 66.3508 9.51014C67.2826 8.56411 68.3567 7.81724 69.5873 7.27665C70.8178 6.73605 72.1337 6.46576 73.5421 6.46576C74.9505 6.46576 76.2451 6.73605 77.4686 7.27665C78.6991 7.81724 79.7874 8.56411 80.7335 9.51014C81.6795 10.4562 82.4193 11.5445 82.9527 12.775C83.4862 14.0056 83.7494 15.3073 83.7494 16.673C83.7494 18.0387 83.4862 19.3973 82.9527 20.6278C82.4193 21.8584 81.6795 22.9325 80.7335 23.8643C79.7874 24.7961 78.6991 25.5216 77.4686 26.048C76.238 26.5744 74.9292 26.8304 73.5421 26.8304C72.1551 26.8304 70.8178 26.5672 69.5873 26.048C68.3567 25.5216 67.2826 24.7961 66.3508 23.8643C65.419 22.9325 64.6935 21.8584 64.1671 20.6278C63.6407 19.3973 63.3846 18.0814 63.3846 16.673ZM67.4533 16.673C67.4533 17.555 67.6098 18.3872 67.9299 19.1554C68.2429 19.9236 68.691 20.5994 69.2601 21.1898C69.8291 21.7802 70.4906 22.2354 71.2375 22.5555C71.9844 22.8827 72.8024 23.0463 73.6915 23.0463C74.5806 23.0463 75.3275 22.8827 76.0602 22.5555C76.7928 22.2283 77.4259 21.773 77.9665 21.1898C78.5071 20.6065 78.9338 19.9236 79.2397 19.1554C79.5456 18.3872 79.7021 17.5621 79.7021 16.673C79.7021 15.7839 79.5456 14.9303 79.2255 14.155C78.9125 13.3796 78.4786 12.6968 77.9238 12.1064C77.3761 11.5231 76.7288 11.0608 75.989 10.7407C75.2493 10.4135 74.4455 10.2499 73.5777 10.2499C72.7099 10.2499 71.9061 10.4135 71.1664 10.7407C70.4266 11.0679 69.7722 11.5231 69.2174 12.1064C68.6554 12.6968 68.2215 13.3725 67.9157 14.155C67.6098 14.9303 67.4533 15.7696 67.4533 16.673Z" fill="#283A3E"/>
<path d="M103.865 24.6112C103.63 24.8672 103.26 25.1233 102.755 25.3865C102.25 25.6497 101.667 25.8844 101.006 26.1049C100.344 26.3183 99.6755 26.4961 98.9855 26.6313C98.2955 26.7664 97.6482 26.8376 97.0365 26.8376C95.4076 26.8376 93.9495 26.5957 92.6478 26.1191C91.3461 25.6426 90.2364 24.9739 89.3189 24.1133C88.4013 23.2526 87.69 22.2425 87.2063 21.0689C86.7155 19.8952 86.4736 18.6149 86.4736 17.2207C86.4736 15.3998 86.751 13.8136 87.2987 12.4692C87.8465 11.1248 88.6004 10.001 89.5465 9.11184C90.4925 8.2156 91.5879 7.55408 92.8256 7.12019C94.0633 6.68629 95.3578 6.4729 96.7164 6.4729C97.9968 6.4729 99.1704 6.61516 100.237 6.89257C101.304 7.16998 102.208 7.51852 102.947 7.93819L101.674 11.5943C101.347 11.4165 100.913 11.2315 100.373 11.0537C99.832 10.8759 99.2771 10.7265 98.7223 10.6056C98.1604 10.4918 97.6625 10.4278 97.2357 10.4278C96.1545 10.4278 95.1942 10.5629 94.362 10.8332C93.5298 11.1035 92.8327 11.5089 92.2637 12.0495C91.6946 12.5901 91.2678 13.2659 90.9762 14.0696C90.6846 14.8734 90.5423 15.8052 90.5423 16.8722C90.5423 17.8111 90.7059 18.6576 91.0331 19.4044C91.3603 20.1513 91.8155 20.7915 92.3988 21.3178C92.9821 21.8442 93.6792 22.2354 94.4829 22.5128C95.2867 22.7831 96.1758 22.9183 97.1503 22.9183C97.7123 22.9183 98.2244 22.8756 98.6939 22.7973C99.1633 22.7191 99.5617 22.584 99.8889 22.4061V19.9948H96.4461V16.2036H103.872V24.6325L103.865 24.6112Z" fill="#283A3E"/>
<path d="M108.332 6.67914H112.258V26.6171H108.332V6.67914Z" fill="#283A3E"/>
<path d="M132.36 24.9668C132.147 25.1446 131.741 25.3936 131.158 25.6995C130.568 26.0053 129.856 26.2756 129.003 26.5103C128.156 26.7451 127.217 26.8518 126.186 26.8375C124.614 26.802 123.213 26.5175 121.975 25.984C120.737 25.4505 119.692 24.725 118.831 23.8003C117.97 22.8827 117.316 21.8228 116.868 20.6279C116.413 19.4329 116.192 18.1596 116.192 16.8081C116.192 15.2931 116.42 13.8989 116.882 12.6328C117.344 11.3667 117.999 10.2784 118.86 9.35366C119.72 8.43608 120.744 7.71766 121.932 7.21264C123.127 6.70761 124.443 6.45154 125.887 6.45154C127.224 6.45154 128.405 6.62936 129.437 6.99213C130.468 7.3549 131.307 7.739 131.955 8.15867L130.411 11.8717C129.963 11.5303 129.358 11.1746 128.612 10.8047C127.865 10.4348 126.997 10.2499 126.022 10.2499C125.261 10.2499 124.536 10.4064 123.839 10.7265C123.142 11.0395 122.53 11.4876 121.996 12.0708C121.463 12.647 121.043 13.3227 120.737 14.091C120.432 14.8592 120.275 15.6914 120.275 16.5948C120.275 17.555 120.417 18.4299 120.695 19.2195C120.972 20.0161 121.378 20.699 121.897 21.268C122.423 21.8371 123.049 22.2781 123.782 22.5839C124.514 22.8898 125.34 23.0463 126.257 23.0463C127.324 23.0463 128.235 22.8756 128.996 22.5342C129.757 22.1927 130.333 21.83 130.731 21.453L132.36 24.9739V24.9668Z" fill="#283A3E"/>
<path d="M146 26.5255V7.56921H146.028L155.169 20.5434L154.621 20.4652L163.733 7.56921H163.761V26.5255H162.509V10.5211L162.616 11.1471L154.891 22.0371H154.842L147.06 11.1471L147.266 10.5709V26.5255H146.014H146Z" fill="#283A3E"/>
<path d="M168.039 26.6171L175.871 7.26953H175.977L183.809 26.6171H182.372L175.558 9.31098L176.447 8.81307L169.32 26.6171H168.039ZM171.823 19.2835H180.046L180.409 20.4856H171.503L171.816 19.2835H171.823Z" fill="#283A3E"/>
<path d="M185.217 8.08044H197.359V9.311H191.904V26.6171H190.623V9.311H185.217V8.08044Z" fill="#283A3E"/>
<path d="M206.002 8.08044C206.699 8.08044 207.389 8.18003 208.079 8.37919C208.769 8.57836 209.395 8.89133 209.956 9.31812C210.525 9.7449 210.981 10.2855 211.329 10.947C211.678 11.6085 211.848 12.3981 211.848 13.3228C211.848 14.0198 211.742 14.6956 211.536 15.3429C211.329 15.9973 210.988 16.5805 210.518 17.1069C210.049 17.6262 209.437 18.0458 208.69 18.3588C207.943 18.6718 207.019 18.8283 205.923 18.8283H203.05V26.61H201.769V8.08044H206.002ZM205.845 17.6119C206.77 17.6119 207.531 17.4839 208.143 17.2207C208.754 16.9575 209.231 16.6232 209.579 16.2036C209.928 15.7839 210.177 15.3287 210.326 14.8307C210.476 14.3328 210.547 13.8491 210.547 13.3797C210.547 12.8249 210.447 12.2985 210.248 11.8148C210.049 11.3311 209.757 10.8972 209.373 10.5202C208.989 10.1432 208.527 9.8516 207.986 9.63109C207.446 9.41059 206.848 9.30389 206.186 9.30389H203.057V17.6048H205.852L205.845 17.6119ZM208.505 18.1881L213.648 26.6242H212.161L206.99 18.2166L208.505 18.1881Z" fill="#283A3E"/>
<path d="M218.293 8.08044H219.573V26.6171H218.293V8.08044Z" fill="#283A3E"/>
<path d="M223.649 26.6171L229.916 16.8295L230.592 17.9534L225.214 26.6242H223.649V26.6171ZM223.912 8.08044H225.506L237.569 26.6171H235.948L223.912 8.08044ZM230.513 16.4098L235.706 8.08044H237.221L231.239 17.427L230.506 16.4098H230.513Z" fill="#283A3E"/>
<g opacity="0.2">
<path d="M235.058 33.4954H145.043C141.515 33.4954 138.641 30.6217 138.641 27.0936V8.03774C138.641 4.50966 141.515 1.63599 145.043 1.63599H235.058C238.586 1.63599 241.46 4.50966 241.46 8.03774V27.0936C241.46 30.6217 238.586 33.4954 235.058 33.4954ZM145.043 2.6247C142.055 2.6247 139.622 5.05737 139.622 8.04486V27.1007C139.622 30.0882 142.055 32.5209 145.043 32.5209H235.058C238.046 32.5209 240.479 30.0882 240.479 27.1007V8.03774C240.479 5.05026 238.046 2.61759 235.058 2.61759H145.043V2.6247Z" fill="#1F1E5B"/>
</g>
</g>
<defs>
<linearGradient id="paint0_linear_188_1707" x1="8.00087" y1="32.2364" x2="21.032" y2="5.35615" gradientUnits="userSpaceOnUse">
<stop stop-color="#2E449C"/>
<stop offset="1" stop-color="#0089C9"/>
</linearGradient>
<linearGradient id="paint1_linear_188_1707" x1="23.1375" y1="22.0434" x2="10.4762" y2="17.171" gradientUnits="userSpaceOnUse">
<stop stop-color="#2E449C"/>
<stop offset="1" stop-color="#0089C9"/>
</linearGradient>
<linearGradient id="paint2_linear_188_1707" x1="24.5187" y1="14.0411" x2="24.5187" y2="6.08875" gradientUnits="userSpaceOnUse">
<stop stop-color="#2484C6"/>
<stop offset="1" stop-color="#2484C6" stop-opacity="0"/>
</linearGradient>
<linearGradient id="paint3_linear_188_1707" x1="18.1383" y1="4.99338" x2="18.1383" y2="0" gradientUnits="userSpaceOnUse">
<stop stop-color="#2484C6"/>
<stop offset="1" stop-color="#2484C6" stop-opacity="0"/>
</linearGradient>
<linearGradient id="paint4_linear_188_1707" x1="30.828" y1="22.0007" x2="30.828" y2="15.2006" gradientUnits="userSpaceOnUse">
<stop stop-color="#2484C6"/>
<stop offset="1" stop-color="#2484C6" stop-opacity="0"/>
</linearGradient>
<linearGradient id="paint5_linear_188_1707" x1="36.3548" y1="18.3517" x2="36.3548" y2="15.2006" gradientUnits="userSpaceOnUse">
<stop stop-color="#2484C6"/>
<stop offset="1" stop-color="#2484C6" stop-opacity="0"/>
</linearGradient>
<linearGradient id="paint6_linear_188_1707" x1="22.8969" y1="5.1285" x2="22.8969" y2="2.52512" gradientUnits="userSpaceOnUse">
<stop stop-color="#2484C6"/>
<stop offset="1" stop-color="#2484C6" stop-opacity="0"/>
</linearGradient>
<linearGradient id="paint7_linear_188_1707" x1="22.5128" y1="1.83517" x2="22.5128" y2="-0.00711307" gradientUnits="userSpaceOnUse">
<stop stop-color="#2484C6"/>
<stop offset="1" stop-color="#2484C6" stop-opacity="0"/>
</linearGradient>
<linearGradient id="paint8_linear_188_1707" x1="24.6254" y1="1.02428" x2="24.6254" y2="-0.00711307" gradientUnits="userSpaceOnUse">
<stop stop-color="#2484C6"/>
<stop offset="1" stop-color="#2484C6" stop-opacity="0"/>
</linearGradient>
<linearGradient id="paint9_linear_188_1707" x1="26.6669" y1="5.12852" x2="26.6669" y2="1.83517" gradientUnits="userSpaceOnUse">
<stop stop-color="#2484C6"/>
<stop offset="1" stop-color="#2484C6" stop-opacity="0"/>
</linearGradient>
<linearGradient id="paint10_linear_188_1707" x1="31.2263" y1="14.3115" x2="31.2263" y2="10.5345" gradientUnits="userSpaceOnUse">
<stop stop-color="#2484C6"/>
<stop offset="1" stop-color="#2484C6" stop-opacity="0"/>
</linearGradient>
<linearGradient id="paint11_linear_188_1707" x1="30.6431" y1="9.64534" x2="30.6431" y2="7.04196" gradientUnits="userSpaceOnUse">
<stop stop-color="#2484C6"/>
<stop offset="1" stop-color="#2484C6" stop-opacity="0"/>
</linearGradient>
<clipPath id="clip0_188_1707">
<rect width="241.46" height="35.1385" fill="white"/>
</clipPath>
</defs>
</svg>
