<svg width="13" height="13" viewBox="0 0 13 13" fill="none" xmlns="http://www.w3.org/2000/svg">
<path fill-rule="evenodd" clip-rule="evenodd" d="M4.70837 2.335C4.22227 1.88833 3.47509 1.88833 2.98898 2.335C2.96908 2.35329 2.94782 2.37455 2.92023 2.40215L2.50556 2.81682C2.08829 3.23409 1.91312 3.83562 2.04113 4.41168C2.76744 7.68004 5.31996 10.2326 8.58832 10.9589C9.16438 11.0869 9.76591 10.9117 10.1832 10.4944L10.5978 10.0798C10.6254 10.0522 10.6467 10.0309 10.665 10.011C11.1117 9.52491 11.1117 8.77774 10.665 8.29163C10.6467 8.27172 10.6254 8.25046 10.5978 8.22284L9.91896 7.54399C9.44764 7.07267 8.73587 6.93787 8.12484 7.20421C7.77503 7.35669 7.36754 7.27952 7.09771 7.00969L5.99031 5.90229C5.72048 5.63246 5.64331 5.22497 5.79579 4.87516C6.06213 4.26414 5.92733 3.55236 5.45601 3.08104L4.77713 2.40216C4.74953 2.37455 4.72828 2.35329 4.70837 2.335ZM3.45791 2.84532C3.67886 2.64229 4.01849 2.64229 4.23944 2.84532C4.24707 2.85233 4.25707 2.86222 4.29221 2.89736L4.96595 3.5711C5.23578 3.84093 5.31295 4.24842 5.16047 4.59823C4.89413 5.20925 5.02892 5.92103 5.50025 6.39235L6.60765 7.49975C7.07898 7.97108 7.79075 8.10587 8.40178 7.83953C8.75158 7.68705 9.15907 7.76422 9.4289 8.03405L10.1026 8.70779C10.1378 8.74293 10.1477 8.75293 10.1547 8.76056C10.3577 8.98151 10.3577 9.32114 10.1547 9.54209C10.1477 9.54972 10.1378 9.55972 10.1026 9.59486L9.69312 10.0044C9.4434 10.2541 9.08341 10.3589 8.73867 10.2823C5.73298 9.61439 3.38561 7.26702 2.71768 4.26133C2.64107 3.91659 2.7459 3.5566 2.99562 3.30688L3.40514 2.89736C3.44028 2.86222 3.45028 2.85233 3.45791 2.84532Z" fill="#CCEFFC"/>
<path d="M7.56898 3.3793C7.59932 3.37931 7.61343 3.37934 7.62518 3.3795C8.68766 3.39472 9.54529 4.25234 9.5605 5.31483C9.5607 5.32826 9.56071 5.34476 9.56071 5.38507V5.64644C9.56071 5.83782 9.71585 5.99296 9.90723 5.99296C10.0986 5.99296 10.2538 5.83782 10.2538 5.64644V5.38172C10.2538 5.34581 10.2538 5.32396 10.2535 5.3049C10.2329 3.86743 9.07258 2.70711 7.63511 2.68652C7.61604 2.68625 7.59419 2.68625 7.55829 2.68625H7.29357C7.10219 2.68625 6.94705 2.8414 6.94705 3.03278C6.94705 3.22416 7.10219 3.3793 7.29357 3.3793H7.55494C7.55998 3.3793 7.56464 3.3793 7.56898 3.3793Z" fill="#CCEFFC"/>
</svg>
