<svg width="15" height="13" viewBox="0 0 15 13" fill="none" xmlns="http://www.w3.org/2000/svg">
<path d="M11 9.26953C10.9999 8.34246 10.1737 7.53906 9.08887 7.53906H5.66113C4.57632 7.53906 3.75012 8.34246 3.75 9.26953C3.75 10.1967 4.57624 11 5.66113 11H9.08887C10.1738 11 11 10.1967 11 9.26953ZM9.28613 3.48047C9.28613 2.55331 8.45989 1.75 7.375 1.75C6.29011 1.75 5.46387 2.55331 5.46387 3.48047C5.46399 4.40754 6.29019 5.21094 7.375 5.21094C8.45981 5.21094 9.28601 4.40754 9.28613 3.48047ZM11.75 9.26953C11.75 10.6678 10.5287 11.75 9.08887 11.75H5.66113C4.22129 11.75 3 10.6678 3 9.26953C3.00012 7.87138 4.22136 6.78906 5.66113 6.78906H9.08887C10.5286 6.78906 11.7499 7.87138 11.75 9.26953ZM10.0361 3.48047C10.036 4.87862 8.81477 5.96094 7.375 5.96094C5.93523 5.96094 4.71399 4.87862 4.71387 3.48047C4.71387 2.08222 5.93516 1 7.375 1C8.81484 1 10.0361 2.08222 10.0361 3.48047Z" fill="#CCEFFC"/>
</svg>
