<svg width="15" height="12" viewBox="0 0 15 12" fill="none" xmlns="http://www.w3.org/2000/svg">
<path fill-rule="evenodd" clip-rule="evenodd" d="M10.2953 1.06345C9.71094 0.999993 8.9744 0.999996 8.03478 1H6.96522C6.0256 0.999996 5.28906 0.999993 4.70471 1.06345C4.10839 1.12821 3.62522 1.26273 3.21268 1.56316C2.96293 1.74503 2.7433 1.96517 2.56185 2.21551C2.47912 2.32963 2.40828 2.45016 2.34784 2.57845C2.16274 2.9713 2.08018 3.42686 2.03994 3.97009C2 4.50935 2 5.17038 2 5.98542V6.02321C2 6.96502 1.99999 7.70328 2.0633 8.28899C2.12791 8.8867 2.26212 9.371 2.56185 9.7845C2.7433 10.0348 2.96293 10.255 3.21268 10.4368C3.62522 10.7373 4.10839 10.8718 4.70471 10.9366C5.28905 11 6.02557 11 6.96517 11H8.03479C8.97439 11 9.71095 11 10.2953 10.9366C10.8916 10.8718 11.3748 10.7373 11.7873 10.4368C12.0371 10.255 12.2567 10.0348 12.4382 9.7845C12.7379 9.371 12.8721 8.8867 12.9367 8.28899C13 7.70329 13 6.96504 13 6.02326V5.98508C13 5.16448 13 4.49993 12.9592 3.95848C12.9181 3.41285 12.8336 2.95579 12.6442 2.56178C12.5855 2.43966 12.5173 2.32464 12.4382 2.21551C12.2567 1.96517 12.0371 1.74503 11.7873 1.56316C11.3748 1.26273 10.8916 1.12821 10.2953 1.06345ZM3.66377 2.18548C3.92368 1.9962 4.25635 1.88587 4.78737 1.82821C5.32558 1.76976 6.02059 1.76923 6.98837 1.76923H8.01163C8.97941 1.76923 9.67442 1.76976 10.2126 1.82821C10.7437 1.88587 11.0763 1.9962 11.3362 2.18548C11.5207 2.31984 11.683 2.48246 11.8171 2.66738L10.8464 3.64031C9.98604 4.5027 9.36747 5.12155 8.83394 5.52957C8.30927 5.93082 7.91218 6.09176 7.5 6.09176C7.08782 6.09176 6.69073 5.93082 6.16606 5.52957C5.63253 5.12155 5.01396 4.5027 4.15358 3.64031L3.18291 2.66738C3.31699 2.48247 3.47926 2.31984 3.66377 2.18548ZM12.1237 3.44788C12.1546 3.61211 12.1776 3.79944 12.1939 4.01643C12.2323 4.5256 12.2326 5.16145 12.2326 6C12.2326 6.97004 12.232 7.66667 12.1737 8.20613C12.1162 8.73839 12.0061 9.07184 11.8173 9.33235C11.6832 9.51738 11.5208 9.6801 11.3362 9.81453C11.0763 10.0038 10.7437 10.1141 10.2126 10.1718C9.67442 10.2302 8.97941 10.2308 8.01163 10.2308H6.98837C6.02059 10.2308 5.32558 10.2302 4.78737 10.1718C4.25635 10.1141 3.92368 10.0038 3.66377 9.81453C3.47917 9.6801 3.31684 9.51738 3.18272 9.33235C2.99388 9.07184 2.88381 8.73839 2.82628 8.20613C2.76797 7.66667 2.76744 6.97004 2.76744 6C2.76744 5.16741 2.76768 4.53458 2.80528 4.02705C2.82168 3.80556 2.84486 3.6148 2.87627 3.44788L3.63167 4.20504C4.46679 5.04211 5.12125 5.69811 5.70054 6.14113C6.29349 6.59458 6.85256 6.86099 7.5 6.86099C8.14744 6.86099 8.70652 6.59458 9.29946 6.14113C9.87875 5.69811 10.5332 5.04212 11.3683 4.20505L12.1237 3.44788Z" fill="#CCEFFC"/>
</svg>
