<svg width="151" height="86" viewBox="0 0 151 86" fill="none" xmlns="http://www.w3.org/2000/svg">
<g clip-path="url(#clip0_265_510)">
<path d="M41.4403 34.4458C41.2924 34.4458 41.1275 34.4287 40.9797 34.3889C39.9733 34.167 39.2227 33.268 39.2227 32.2097V22.5656H31.1996C29.9714 22.5656 28.965 21.5586 28.965 20.3296V9.67844L28.9309 9.07533H23.91C22.6818 9.07533 21.6754 8.06825 21.6754 6.83927V3.2832H21.5446C21.4536 3.2832 21.3797 3.2832 21.2887 3.30027C21.1978 3.30027 21.0897 3.31734 20.9931 3.33441C20.9362 3.35148 20.9021 3.35148 20.8452 3.36855C20.6974 3.40269 20.5325 3.44252 20.3847 3.49941C20.3278 3.51648 20.2766 3.53355 20.2368 3.55631C19.9639 3.66441 19.6853 3.79528 19.4294 3.94321L15.6709 6.1053L2.45639 13.7523C0.938206 14.6342 0 16.2444 0 18.0082V37.6263C0 39.3844 0.93252 41.0003 2.45639 41.8822L19.4237 51.6913C20.9419 52.5732 22.8126 52.5732 24.3365 51.6913L33.6276 46.3202L40.3144 42.4512C40.3713 41.4441 40.3315 40.437 40.1495 39.447C39.5241 35.8739 37.3463 32.608 34.3042 30.645C31.7739 29.0292 28.7887 28.3179 26.1674 26.85C22.0279 24.5229 19.0598 20.2329 18.3263 15.5559C17.7236 11.7267 18.639 7.67566 20.7656 4.42684C20.8339 4.32442 20.9078 4.22201 20.9874 4.11959C21.1921 3.84648 21.4252 3.59045 21.664 3.36286V3.37993C21.4252 3.70993 21.1978 4.057 20.9874 4.40408C19.4749 6.89617 18.6618 9.82068 18.6618 12.7452C18.6618 13.5361 18.7186 14.3212 18.8437 15.0894C19.5772 19.7834 22.5454 24.0563 26.6849 26.3834C29.2891 27.8514 32.2913 28.5626 34.8217 30.1785C37.8637 32.1414 40.0415 35.4016 40.667 38.9805C40.8489 40.0274 40.8887 41.0913 40.8148 42.1724L41.3095 41.8765C41.5085 41.7684 41.6962 41.6376 41.8781 41.4953C41.9975 41.3986 42.1169 41.3019 42.225 41.1995C43.1973 40.2834 43.7659 38.9975 43.7659 37.6263V34.4571H41.4573L41.4403 34.4458Z" fill="white"/>
<path d="M28.9649 9.66143L28.9308 9.05832H23.9099C22.6817 9.05832 21.6753 8.05124 21.6753 6.82227V6.83934C21.6753 8.06831 22.6817 9.07539 23.9099 9.07539H28.9308L28.9649 9.6785V9.66143Z" fill="white"/>
<path d="M39.2226 22.5486H31.1995C29.9713 22.5486 28.9648 21.5415 28.9648 20.3125V20.3296C28.9648 21.5585 29.9713 22.5656 31.1995 22.5656H39.2226V22.5486Z" fill="white"/>
<path d="M40.9853 34.3715C39.9788 34.1496 39.2283 33.2507 39.2283 32.1924V32.2095C39.2283 33.2734 39.9788 34.1724 40.9853 34.3886C41.1331 34.4227 41.298 34.4455 41.4459 34.4455H43.7544V34.4284H41.4459C41.298 34.4284 41.1331 34.4114 40.9853 34.3715Z" fill="white"/>
<path d="M41.8326 9.05762H31.1826C30.8497 9.05762 30.5798 9.32764 30.5798 9.66073V20.3176C30.5798 20.6506 30.8497 20.9207 31.1826 20.9207H41.8326C42.1655 20.9207 42.4353 20.6506 42.4353 20.3176V9.66073C42.4353 9.32764 42.1655 9.05762 41.8326 9.05762Z" fill="white"/>
<path d="M30.1191 0H23.8871C23.5543 0 23.2844 0.270021 23.2844 0.60311V6.83904C23.2844 7.17212 23.5543 7.44214 23.8871 7.44214H30.1191C30.452 7.44214 30.7218 7.17212 30.7218 6.83904V0.60311C30.7218 0.270021 30.452 0 30.1191 0Z" fill="white"/>
<path d="M50.3673 22.6562H41.4401C41.1073 22.6562 40.8374 22.9263 40.8374 23.2594V32.1922C40.8374 32.5253 41.1073 32.7953 41.4401 32.7953H50.3673C50.7002 32.7953 50.97 32.5253 50.97 32.1922V23.2594C50.97 22.9263 50.7002 22.6562 50.3673 22.6562Z" fill="white"/>
<path d="M55.8827 22.6562H52.3972C52.0643 22.6562 51.7944 22.9263 51.7944 23.2594V26.7472C51.7944 27.0802 52.0643 27.3503 52.3972 27.3503H55.8827C56.2156 27.3503 56.4855 27.0802 56.4855 26.7472V23.2594C56.4855 22.9263 56.2156 22.6562 55.8827 22.6562Z" fill="white"/>
<path d="M32.7575 7.62389H35.4129C35.7427 7.62389 36.0156 7.35078 36.0156 7.02078V4.38075C36.0156 4.03368 35.7427 3.75488 35.4129 3.75488H32.7575C32.4277 3.75488 32.1548 4.02799 32.1548 4.35799V7.01509C32.1548 7.34509 32.4277 7.6182 32.7575 7.6182V7.62389Z" fill="white"/>
<path d="M32.7575 2.73106H34.2757C34.6055 2.73106 34.8784 2.45796 34.8784 2.12795V0.603109C34.8784 0.256037 34.6055 0 34.2757 0H32.7575C32.4277 0 32.1548 0.273106 32.1548 0.603109V2.12226C32.1548 2.45227 32.4277 2.72537 32.7575 2.72537V2.73106Z" fill="white"/>
<path d="M36.5161 1.51915H36.8288C37.1586 1.51915 37.4315 1.24605 37.4315 0.916044V0.60311C37.4315 0.256037 37.1586 0 36.8288 0H36.5161C36.1863 0 35.9133 0.273106 35.9133 0.60311V0.916044C35.9133 1.24605 36.1863 1.51915 36.5161 1.51915Z" fill="white"/>
<path d="M44.4482 2.54883H44.1354C43.8026 2.54883 43.5327 2.81885 43.5327 3.15194V3.46487C43.5327 3.79796 43.8026 4.06798 44.1354 4.06798H44.4482C44.7811 4.06798 45.0509 3.79796 45.0509 3.46487V3.15194C45.0509 2.81885 44.7811 2.54883 44.4482 2.54883Z" fill="white"/>
<path d="M41.5539 2.74805H37.8693C37.5364 2.74805 37.2666 3.01807 37.2666 3.35116V7.03809C37.2666 7.37118 37.5364 7.6412 37.8693 7.6412H41.5539C41.8868 7.6412 42.1566 7.37118 42.1566 7.03809V3.35116C42.1566 3.01807 41.8868 2.74805 41.5539 2.74805Z" fill="white"/>
<path d="M43.6406 5.64413V7.0381C43.6406 7.36811 43.8965 7.64121 44.2433 7.64121H45.6364C45.9662 7.64121 46.2392 7.36811 46.2392 7.0381V5.64413C46.2392 5.31412 45.9662 5.04102 45.6364 5.04102H44.2433C43.9136 5.04102 43.6406 5.31412 43.6406 5.64413Z" fill="white"/>
<path d="M44.34 8.58008H44.2433C43.9105 8.58008 43.6406 8.8501 43.6406 9.18319V9.27991C43.6406 9.613 43.9105 9.88302 44.2433 9.88302H44.34C44.6729 9.88302 44.9427 9.613 44.9427 9.27991V9.18319C44.9427 8.8501 44.6729 8.58008 44.34 8.58008Z" fill="white"/>
<path d="M46.5575 8.58008H46.4609C46.128 8.58008 45.8582 8.8501 45.8582 9.18319V9.27991C45.8582 9.613 46.128 9.88302 46.4609 9.88302H46.5575C46.8904 9.88302 47.1603 9.613 47.1603 9.27991V9.18319C47.1603 8.8501 46.8904 8.58008 46.5575 8.58008Z" fill="white"/>
<path d="M44.3002 21.3192H48.6956C49.0254 21.3192 49.2983 21.0461 49.2983 20.7161V16.318C49.3154 15.9709 49.0424 15.7148 48.6956 15.7148H44.3002C43.9704 15.7148 43.6975 15.9879 43.6975 16.318V20.7161C43.6975 21.0461 43.9704 21.3192 44.3002 21.3192Z" fill="white"/>
<path d="M52.9659 20.7337V19.4478C52.9659 19.1178 52.6929 18.8447 52.3632 18.8447H51.0781C50.7483 18.8447 50.4754 19.1178 50.4754 19.4478V20.7337C50.4583 21.0637 50.7312 21.3368 51.0781 21.3368H52.3632C52.6929 21.3368 52.9659 21.0637 52.9659 20.7337Z" fill="white"/>
<path d="M46.9613 10.5029H44.3002C43.9674 10.5029 43.6975 10.773 43.6975 11.106V13.7688C43.6975 14.1019 43.9674 14.3719 44.3002 14.3719H46.9613C47.2942 14.3719 47.5641 14.1019 47.5641 13.7688V11.106C47.5641 10.773 47.2942 10.5029 46.9613 10.5029Z" fill="white"/>
<path d="M50.3674 11.9375H49.1335C48.8006 11.9375 48.5308 12.2075 48.5308 12.5406V13.7753C48.5308 14.1084 48.8006 14.3784 49.1335 14.3784H50.3674C50.7002 14.3784 50.9701 14.1084 50.9701 13.7753V12.5406C50.9701 12.2075 50.7002 11.9375 50.3674 11.9375Z" fill="white"/>
<path d="M49.1335 11.089C49.4633 11.089 49.7362 10.8159 49.7362 10.4859C49.7362 10.1559 49.4633 9.88281 49.1335 9.88281C48.8037 9.88281 48.5308 10.1559 48.5308 10.4859C48.5308 10.8159 48.8037 11.089 49.1335 11.089Z" fill="white"/>
<path d="M3.06481 65.0791H0V80.6348H10.3714V77.6761H3.06481V65.0791Z" fill="white"/>
<path d="M25.6955 67.2865C24.9563 66.5468 24.1091 65.9665 23.1481 65.5454C22.1929 65.1244 21.1694 64.9082 20.0833 64.9082C18.9973 64.9082 17.9567 65.1187 17.0015 65.5454C16.0462 65.9665 15.2047 66.5468 14.4768 67.2865C13.749 68.0262 13.1861 68.8739 12.7767 69.8355C12.3673 70.7914 12.1626 71.8098 12.1626 72.8795C12.1626 73.9492 12.3673 75.0074 12.7767 75.9633C13.1861 76.9192 13.749 77.7613 14.4768 78.4895C15.2047 79.2178 16.0405 79.7811 17.0015 80.1908C17.9567 80.6004 18.9859 80.8053 20.0833 80.8053C21.1807 80.8053 22.1872 80.6004 23.1481 80.1908C24.1034 79.7811 24.9563 79.2178 25.6955 78.4895C26.4347 77.7613 27.0147 76.9249 27.4298 75.9633C27.8449 75.0074 28.0552 73.9776 28.0552 72.8795C28.0552 71.7814 27.8449 70.7971 27.4298 69.8355C27.0147 68.8796 26.4347 68.0262 25.6955 67.2865ZM24.5242 74.8083C24.2854 75.4057 23.9556 75.9349 23.5291 76.3957C23.1083 76.8509 22.608 77.2094 22.0393 77.4654C21.4707 77.7214 20.851 77.8466 20.1914 77.8466C19.5318 77.8466 18.8665 77.7214 18.2808 77.4654C17.6952 77.2094 17.1834 76.8566 16.7399 76.3957C16.2964 75.9406 15.9495 75.4114 15.705 74.8083C15.4605 74.2109 15.3354 73.5623 15.3354 72.8738C15.3354 72.1853 15.4548 71.514 15.6937 70.9108C15.9325 70.3077 16.2736 69.7729 16.7058 69.3177C17.1436 68.8626 17.6497 68.5041 18.224 68.2481C18.804 67.992 19.4294 67.8669 20.1061 67.8669C20.7827 67.8669 21.4082 67.992 21.9882 68.2481C22.5682 68.5041 23.0685 68.8569 23.5007 69.3177C23.9328 69.7786 24.2683 70.3077 24.5128 70.9108C24.7573 71.514 24.8824 72.174 24.8824 72.8738C24.8824 73.5736 24.763 74.2109 24.5242 74.8083Z" fill="white"/>
<path d="M37.932 75.4512H40.6158V77.3345C40.36 77.4768 40.0529 77.5792 39.689 77.6418C39.3251 77.7044 38.9214 77.7385 38.4836 77.7385C37.7216 77.7385 37.0279 77.6304 36.4024 77.4199C35.777 77.2094 35.2311 76.8964 34.7762 76.4925C34.3156 76.0828 33.9631 75.5878 33.7072 75.0018C33.4514 74.4157 33.3263 73.7557 33.3263 73.0274C33.3263 72.1967 33.44 71.4684 33.6617 70.8426C33.8892 70.2167 34.219 69.6932 34.6625 69.2665C35.106 68.8455 35.6519 68.5269 36.3001 68.3163C36.9483 68.1058 37.6932 67.9977 38.5404 67.9977C38.8759 67.9977 39.2682 68.0432 39.7004 68.1343C40.1382 68.2253 40.5647 68.3448 40.9911 68.4813C41.4119 68.6236 41.7531 68.7658 42.0033 68.9024L42.9983 66.0518C42.4183 65.7275 41.7189 65.4544 40.8888 65.2382C40.0586 65.022 39.1431 64.9082 38.1424 64.9082C37.0848 64.9082 36.0783 65.0789 35.1117 65.4146C34.1451 65.7503 33.2978 66.268 32.5586 66.9679C31.8194 67.6677 31.2338 68.5382 30.8073 69.5908C30.3752 70.6377 30.1648 71.8781 30.1648 73.3005C30.1648 74.3873 30.3524 75.3887 30.7334 76.299C31.1144 77.2151 31.6602 78.0059 32.3824 78.6773C33.0988 79.3487 33.9688 79.8665 34.9809 80.242C35.993 80.6175 37.136 80.7996 38.404 80.7996C38.8816 80.7996 39.3876 80.7484 39.9221 80.6403C40.4566 80.5322 40.9798 80.3956 41.4972 80.2306C42.0089 80.0599 42.4638 79.8721 42.8618 79.673C43.2542 79.4682 43.5442 79.269 43.7261 79.0699V72.4983H37.9377V75.4569L37.932 75.4512Z" fill="white"/>
<path d="M50.2709 65.0791H47.2061V80.6348H50.2709V65.0791Z" fill="white"/>
<path d="M63.3205 77.4428C62.7291 77.7102 62.0184 77.8468 61.1882 77.8468C60.4717 77.8468 59.8235 77.7273 59.2549 77.4883C58.6863 77.2494 58.1973 76.908 57.7879 76.4642C57.3785 76.0204 57.0658 75.4912 56.8497 74.8711C56.6336 74.2509 56.5199 73.5681 56.5199 72.8228C56.5199 72.1172 56.6393 71.4686 56.8781 70.8655C57.1169 70.2681 57.4467 69.7446 57.8618 69.2895C58.2769 68.84 58.7545 68.4872 59.3004 68.2425C59.8406 67.9979 60.4092 67.8727 61.0006 67.8727C61.7625 67.8727 62.4334 68.015 63.0191 68.3051C63.6048 68.5953 64.071 68.8741 64.4236 69.1415L65.629 66.2455C65.123 65.9211 64.4691 65.6196 63.6673 65.3351C62.8656 65.0506 61.9444 64.9141 60.8982 64.9141C59.7724 64.9141 58.7432 65.1132 57.8163 65.5058C56.8895 65.8984 56.0878 66.456 55.4168 67.1729C54.7458 67.8898 54.2341 68.7432 53.8759 69.7333C53.5176 70.7176 53.3357 71.8043 53.3357 72.9878C53.3357 74.0461 53.512 75.0361 53.8645 75.9692C54.217 76.8966 54.7288 77.7216 55.3941 78.4442C56.065 79.1611 56.8781 79.7301 57.8448 80.1454C58.8114 80.5608 59.9031 80.7827 61.1313 80.8111C61.9331 80.8225 62.6666 80.7428 63.3262 80.5551C63.9858 80.373 64.5487 80.1625 65.0036 79.9235C65.4585 79.6846 65.7769 79.4911 65.9418 79.3546L64.6738 76.6064C64.3667 76.9023 63.9118 77.1868 63.3205 77.4542V77.4428Z" fill="white"/>
<path d="M83.4889 75.633L76.5974 65.8467H76.5803V80.6342H77.5526V68.8622L83.4605 77.1294H83.5003L89.4423 68.7484V80.6342H90.4203V65.8467H90.3975L83.4889 75.633Z" fill="white"/>
<path d="M99.8649 65.54L93.7581 80.6348H94.7531L96.6693 75.8498H103.049L104.931 80.6348H106.051L99.9445 65.54H99.8649ZM97.0446 74.911L99.8877 67.8102L102.68 74.911H97.0446Z" fill="white"/>
<path d="M107.149 67.1277H111.362V80.6351H112.363V67.1277H116.616V66.1719H107.149V67.1277Z" fill="white"/>
<path d="M125.452 74.1942C126.038 73.9495 126.51 73.6252 126.879 73.2156C127.243 72.8059 127.511 72.3507 127.676 71.8387C127.84 71.3323 127.92 70.8031 127.92 70.2626C127.92 69.5457 127.784 68.9255 127.511 68.4078C127.238 67.89 126.885 67.469 126.442 67.1333C125.998 66.8033 125.515 66.5586 124.975 66.3993C124.44 66.2457 123.9 66.166 123.354 66.166H120.056V80.6293H121.051V74.5583H123.292C123.684 74.5583 124.042 74.5299 124.378 74.4787L128.159 80.6293H129.319L125.407 74.2113C125.407 74.2113 125.441 74.1999 125.452 74.1942ZM123.229 73.6082H121.051V67.1333H123.496C124.014 67.1333 124.48 67.2186 124.901 67.3893C125.321 67.56 125.68 67.7876 125.981 68.0835C126.277 68.3736 126.504 68.7093 126.663 69.0905C126.817 69.4717 126.897 69.8757 126.897 70.3138C126.897 70.678 126.84 71.0592 126.726 71.4461C126.612 71.833 126.419 72.1914 126.146 72.5157C125.873 72.84 125.503 73.1075 125.026 73.3123C124.548 73.5171 123.951 73.6195 123.235 73.6195L123.229 73.6082Z" fill="white"/>
<path d="M133.936 66.1719H132.941V80.6351H133.936V66.1719Z" fill="white"/>
<path d="M147.696 66.1719H146.519L142.624 72.4192L138.559 66.1719H137.319L141.874 73.193L137.115 80.6351H138.337L142.42 74.0407L146.701 80.6351H147.964L143.165 73.2613L147.696 66.1719Z" fill="white"/>
<path d="M146.008 61.1475H75.8298C73.0777 61.1475 70.8374 63.3892 70.8374 66.143V81.0103C70.8374 83.7641 73.0777 86.0058 75.8298 86.0058H146.008C148.76 86.0058 151 83.7641 151 81.0103V66.143C151 63.3892 148.76 61.1475 146.008 61.1475ZM150.232 81.0046C150.232 83.3373 148.339 85.232 146.008 85.232H75.8298C73.4985 85.232 71.605 83.3373 71.605 81.0046V66.1373C71.605 63.8046 73.4985 61.9099 75.8298 61.9099H146.008C148.339 61.9099 150.232 63.8046 150.232 66.1373V81.0046Z" fill="white"/>
</g>
<defs>
<clipPath id="clip0_265_510">
<rect width="151" height="86" fill="white"/>
</clipPath>
</defs>
</svg>
