<svg width="26" height="26" viewBox="0 0 26 26" fill="none" xmlns="http://www.w3.org/2000/svg">
<path d="M21.9375 0H4.0625C1.81884 0 0 1.81884 0 4.0625V21.9375C0 24.1812 1.81884 26 4.0625 26H21.9375C24.1812 26 26 24.1812 26 21.9375V4.0625C26 1.81884 24.1812 0 21.9375 0Z" fill="white"/>
<path d="M19.5 13C19.5 9.425 16.575 6.5 13 6.5C9.425 6.5 6.5 9.425 6.5 13C6.5 16.25 8.85625 18.9312 11.9437 19.4187V14.8687H10.3187V13H11.9437V11.5375C11.9437 9.9125 12.9188 9.01875 14.3813 9.01875C15.1125 9.01875 15.8438 9.18125 15.8438 9.18125V10.8063H15.0312C14.2188 10.8063 13.975 11.2937 13.975 11.7812V13H15.7625L15.4375 14.8687H13.8938V19.5C17.1438 19.0125 19.5 16.25 19.5 13Z" fill="#0B78BE"/>
</svg>
