<svg width="26" height="26" viewBox="0 0 26 26" fill="none" xmlns="http://www.w3.org/2000/svg">
<path d="M21.9375 0H4.0625C1.81884 0 0 1.81884 0 4.0625V21.9375C0 24.1812 1.81884 26 4.0625 26H21.9375C24.1812 26 26 24.1812 26 21.9375V4.0625C26 1.81884 24.1812 0 21.9375 0Z" fill="white"/>
<path d="M9.425 19.5H6.6625V10.8063H9.425V19.5ZM8.04375 9.5875C7.15 9.5875 6.5 8.9375 6.5 8.04375C6.5 7.15 7.23125 6.5 8.04375 6.5C8.9375 6.5 9.5875 7.15 9.5875 8.04375C9.5875 8.9375 8.9375 9.5875 8.04375 9.5875ZM19.5 19.5H16.7375V14.7875C16.7375 13.4063 16.1687 13 15.3562 13C14.5437 13 13.7312 13.65 13.7312 14.8687V19.5H10.9688V10.8063H13.5687V12.025C13.8125 11.4563 14.7875 10.5625 16.1687 10.5625C17.7125 10.5625 19.3375 11.4562 19.3375 14.1375V19.5H19.5Z" fill="#0B78BE"/>
</svg>
